<?xml version="1.0" encoding="UTF-8"?>
<svg xmlns="http://www.w3.org/2000/svg" version="1.1" viewBox="0 0 107.8 100.3">
  <!-- Generator: Adobe Illustrator 29.2.0, SVG Export Plug-In . SVG Version: 2.1.0 Build 108)  -->
  <defs>
    <style>
      .st0, .st1 {
        fill: #f2cf04;
      }

      .st2 {
        fill: #fff;
      }

      .st1 {
        stroke-width: 8.1px;
      }

      .st1, .st3 {
        stroke: #231f20;
        stroke-miterlimit: 10;
      }

      .st3 {
        fill: none;
        stroke-width: 7px;
      }

      .st4 {
        fill: #231f20;
      }

      .st5 {
        isolation: isolate;
      }

      .st6 {
        display: none;
      }

      .st7 {
        fill: #ed1c24;
      }
    </style>
  </defs>
  <g id="Layer_1">
    <rect class="st2" width="107.8" height="100.3"/>
    <path class="st4" d="M31.6,54h3.1c0,.5-.1,1-.4,1.4-.2.4-.6.7-1.1,1-.5.2-1.1.3-1.8.3s-1.4-.2-2-.6c-.6-.4-1-.9-1.3-1.6-.3-.7-.4-1.5-.4-2.5s.2-1.8.5-2.5c.3-.7.7-1.2,1.3-1.6.6-.4,1.2-.5,2-.5s.7,0,1.1.1c.3,0,.6.2.8.4.3.2.5.4.6.6.2.2.3.5.4.8h3.7c0-.8-.3-1.4-.7-2.1-.4-.6-.9-1.2-1.5-1.6-.6-.5-1.3-.8-2.1-1.1-.8-.3-1.6-.4-2.5-.4-1.4,0-2.6.3-3.7.9-1.1.6-2,1.5-2.7,2.7-.7,1.2-1,2.6-1,4.2s.3,3,.9,4.1,1.5,2.1,2.6,2.7c1.1.6,2.4.9,3.9.9s2.5-.3,3.5-.8,1.8-1.3,2.4-2.2c.6-1,.9-2.1.9-3.5v-2h-6.7v2.6Z"/>
    <path class="st4" d="M50.9,53.9c0,.5-.1,1-.4,1.4-.2.4-.6.7-1,1-.4.2-.9.4-1.5.4s-1.1-.1-1.5-.4c-.4-.2-.8-.6-1-1-.2-.4-.4-.9-.4-1.4v-9.5h-3.7v9.8c0,1.1.3,2.1.8,3,.5.8,1.3,1.5,2.3,2,1,.5,2.1.7,3.4.7s2.5-.2,3.4-.7c1-.5,1.7-1.1,2.3-2s.8-1.8.8-3v-9.8h-3.7v9.5Z"/>
    <rect class="st4" x="58" y="44.4" width="3.7" height="15.2"/>
    <path class="st4" d="M75,45.3c-1.1-.6-2.5-.9-4.1-.9h-5.7v15.2h5.7c1.6,0,2.9-.3,4.1-.9,1.1-.6,2-1.5,2.6-2.6s.9-2.5.9-4.1-.3-2.9-.9-4.1c-.6-1.1-1.5-2-2.6-2.6ZM74.4,54.7c-.3.7-.8,1.1-1.4,1.4s-1.4.4-2.3.4h-1.9v-9.1h1.8c.9,0,1.7.1,2.3.4s1.1.8,1.4,1.4c.3.7.5,1.5.5,2.6s-.2,2-.5,2.6Z"/>
    <polygon class="st4" points="91.5 47.4 91.5 44.4 80.7 44.4 80.7 59.7 91.5 59.7 91.5 56.7 84.4 56.7 84.4 53.4 90.9 53.4 90.9 50.5 84.4 50.5 84.4 47.4 91.5 47.4"/>
    <path class="st4" d="M27.5,39.1c1.1.6,2.3.9,3.7.9s2-.2,2.8-.5,1.5-.8,2.1-1.3c.6-.5,1-1.1,1.3-1.8.3-.7.5-1.3.6-2h-3.6c0,.4-.2.7-.3,1s-.4.6-.6.8c-.3.2-.6.4-.9.5-.3.1-.7.2-1.1.2-.7,0-1.4-.2-1.9-.5-.5-.3-1-.9-1.2-1.6-.3-.7-.4-1.5-.4-2.6s.1-1.8.4-2.5c.3-.7.7-1.2,1.2-1.6.5-.4,1.2-.6,1.9-.6s.8,0,1.1.2c.3.1.6.3.9.5.3.2.5.5.6.8s.3.6.3,1h3.6c-.1-.9-.3-1.7-.7-2.4-.4-.7-.9-1.3-1.4-1.8-.6-.5-1.3-.8-2-1.1-.8-.2-1.6-.4-2.5-.4-1.3,0-2.6.3-3.7.9-1.1.6-2,1.5-2.6,2.7-.6,1.2-1,2.6-1,4.3s.3,3.1.9,4.2c.6,1.2,1.5,2.1,2.6,2.7Z"/>
    <path class="st4" d="M43.2,39.8h3.2v-5.5l5-9.7h-3.8l-2.1,4.7c-.2.4-.4.9-.5,1.3,0,.2-.1.4-.2.6,0-.2-.1-.4-.2-.6-.2-.5-.4-.9-.6-1.4l-2.2-4.7h-3.8l5.1,9.7v5.5Z"/>
    <path class="st4" d="M63.4,32.4c-.5-.3-1.1-.5-1.7-.5v-.2c.6-.1,1-.3,1.5-.6s.8-.7,1-1.1.4-1,.4-1.5-.2-1.4-.6-2c-.4-.6-1-1-1.7-1.4-.8-.3-1.7-.5-2.9-.5h-6.3v15.2h6.8c1.1,0,2.1-.2,2.9-.6.8-.4,1.4-.9,1.8-1.5.4-.6.6-1.4.6-2.2s-.2-1.4-.5-1.9c-.3-.5-.7-1-1.3-1.3ZM56.7,27.4h2.2c.6,0,1.1.1,1.5.4s.6.7.6,1.2,0,.7-.3.9c-.2.3-.4.5-.7.6-.3.1-.7.2-1.1.2h-2.1v-3.4ZM60.8,36.4c-.4.3-1,.5-1.8.5h-2.3v-3.7h2.4c.5,0,.9,0,1.2.2s.6.4.8.7c.2.3.3.6.3,1s-.2,1-.6,1.3Z"/>
    <polygon class="st4" points="77.7 36.8 70.7 36.8 70.7 33.5 77.1 33.5 77.1 30.6 70.7 30.6 70.7 27.5 77.7 27.5 77.7 24.6 67.1 24.6 67.1 39.8 77.7 39.8 77.7 36.8"/>
    <path class="st4" d="M83.6,34.5h2l2.8,5.2h4l-3.2-5.8s0,0,0,0c.8-.4,1.5-.9,2-1.7.5-.7.7-1.6.7-2.7s-.2-1.9-.7-2.7-1.1-1.3-1.9-1.8c-.8-.4-1.8-.6-3-.6h-6.2v15.2h3.6v-5.2ZM85.4,27.5c.6,0,1,0,1.4.2s.7.4.9.7c.2.3.3.7.3,1.2s0,.9-.3,1.2-.5.5-.9.7-.8.2-1.4.2h-1.9v-4.2h1.9Z"/>
    <rect class="st1" x="16.9" y="67.8" width="74" height="7"/>
    <g>
      <rect class="st4" x="15.9" y="68.3" width="25" height="6"/>
      <rect class="st7" x="40.9" y="68.3" width="25" height="6"/>
      <rect class="st0" x="65.9" y="68.3" width="25" height="6"/>
    </g>
    <line class="st3" x1="16.4" y1="71.3" x2="16.4" y2="22.1"/>
  </g>
  <g id="Layer_2" class="st6">
    <g class="st5">
      <path class="st4" d="M31.4,59.9c-1.5,0-2.8-.3-3.9-.9-1.1-.6-2-1.5-2.6-2.7s-.9-2.5-.9-4.1.3-3.1,1-4.2c.7-1.2,1.6-2.1,2.7-2.7,1.1-.6,2.4-.9,3.7-.9s1.7.1,2.5.4c.8.3,1.5.6,2.1,1.1.6.5,1.1,1,1.5,1.6.4.6.6,1.3.7,2.1h-3.7c0-.3-.2-.6-.4-.8-.2-.2-.4-.5-.6-.6-.2-.2-.5-.3-.8-.4-.3,0-.7-.1-1.1-.1-.8,0-1.4.2-2,.5-.6.4-1,.9-1.3,1.6-.3.7-.5,1.5-.5,2.5s.1,1.8.4,2.5c.3.7.7,1.2,1.3,1.6.6.4,1.2.6,2,.6s1.3-.1,1.8-.3c.5-.2.8-.5,1.1-1,.3-.4.4-.9.4-1.5h.7c0,0-3.8,0-3.8,0v-2.6h6.7v2c0,1.4-.3,2.5-.9,3.5-.6,1-1.4,1.7-2.4,2.2s-2.2.8-3.5.8Z"/>
      <path class="st4" d="M48,59.8c-1.3,0-2.5-.2-3.4-.7-1-.5-1.7-1.1-2.3-2-.5-.8-.8-1.8-.8-3v-9.8h3.7v9.5c0,.5.1,1,.4,1.4.2.4.6.7,1,1,.4.2.9.4,1.5.4s1.1-.1,1.5-.4c.4-.2.8-.6,1-1,.2-.4.4-.9.4-1.4v-9.5h3.7v9.8c0,1.1-.3,2.1-.8,3s-1.3,1.5-2.3,2c-1,.5-2.1.7-3.4.7Z"/>
      <path class="st4" d="M61.7,44.4v15.2h-3.7v-15.2h3.7Z"/>
      <path class="st4" d="M68.9,44.4v15.2h-3.7v-15.2h3.7ZM70.9,59.7h-4.1v-3.1h4c.9,0,1.6-.1,2.3-.4s1.1-.8,1.4-1.4c.3-.7.5-1.5.5-2.6s-.2-2-.5-2.6c-.3-.7-.8-1.1-1.4-1.4s-1.4-.4-2.3-.4h-4v-3.1h4.2c1.6,0,2.9.3,4.1.9,1.1.6,2,1.5,2.6,2.6.6,1.1.9,2.5.9,4.1s-.3,2.9-.9,4.1-1.5,2-2.6,2.6c-1.1.6-2.5.9-4.1.9Z"/>
      <path class="st4" d="M81.7,59.7v-15.2h10.8v2.9h-7.1v3.1h6.5v2.9h-6.5v3.3h7.1v2.9h-10.8Z"/>
    </g>
    <g class="st5">
      <g class="st5">
        <path class="st4" d="M31.2,40c-1.4,0-2.6-.3-3.7-.9s-1.9-1.5-2.6-2.7c-.6-1.2-.9-2.6-.9-4.2s.3-3.1,1-4.3c.6-1.2,1.5-2.1,2.6-2.7,1.1-.6,2.3-.9,3.7-.9s1.7.1,2.5.4c.8.2,1.5.6,2,1.1.6.5,1.1,1.1,1.4,1.8.4.7.6,1.5.7,2.4h-3.6c0-.4-.2-.7-.3-1s-.4-.6-.6-.8c-.3-.2-.6-.4-.9-.5-.3-.1-.7-.2-1.1-.2-.7,0-1.4.2-1.9.6-.5.4-1,.9-1.2,1.6-.3.7-.4,1.5-.4,2.5s.1,1.9.4,2.6c.3.7.7,1.2,1.2,1.6.5.3,1.2.5,1.9.5s.8,0,1.1-.2c.3-.1.6-.3.9-.5.3-.2.5-.5.6-.8s.3-.6.3-1h3.6c0,.7-.3,1.4-.6,2-.3.7-.8,1.3-1.3,1.8-.6.5-1.3,1-2.1,1.3s-1.7.5-2.8.5Z"/>
        <path class="st4" d="M43.2,39.8v-5.5l-5.1-9.7h3.8l2.2,4.7c.2.4.4.9.6,1.4.2.5.3,1,.5,1.6h-.6c.2-.6.3-1.1.5-1.6s.3-.9.5-1.3l2.1-4.7h3.8l-5,9.7v5.5h-3.2Z"/>
        <path class="st4" d="M53.1,39.8v-15.2h6.3c1.1,0,2.1.2,2.9.5.8.3,1.3.8,1.7,1.4.4.6.6,1.2.6,2s-.1,1.1-.4,1.5-.6.8-1,1.1-.9.5-1.5.6v.2c.6,0,1.2.2,1.7.5.5.3.9.7,1.3,1.3.3.5.5,1.2.5,1.9s-.2,1.5-.6,2.2c-.4.6-1,1.1-1.8,1.5-.8.4-1.7.6-2.9.6h-6.8ZM56.7,30.8h2.1c.4,0,.8,0,1.1-.2.3-.1.6-.3.7-.6.2-.3.3-.6.3-.9s-.2-.9-.6-1.2-.9-.4-1.5-.4h-2.2v3.4ZM56.7,36.9h2.3c.8,0,1.4-.2,1.8-.5.4-.3.6-.7.6-1.3s0-.7-.3-1c-.2-.3-.4-.5-.8-.7s-.8-.2-1.2-.2h-2.4v3.7Z"/>
        <path class="st4" d="M67.1,39.8v-15.2h10.6v2.9h-7v3.1h6.4v2.9h-6.4v3.3h7v2.9h-10.6Z"/>
        <path class="st4" d="M80,39.8v-15.2h6.2c1.1,0,2.1.2,3,.6.8.4,1.5,1,1.9,1.8s.7,1.7.7,2.7-.2,1.9-.7,2.7c-.5.7-1.1,1.3-2,1.7-.8.4-1.8.6-3,.6h-4v-2.9h3.3c.6,0,1,0,1.4-.2s.7-.4.9-.7.3-.7.3-1.2,0-.9-.3-1.2c-.2-.3-.5-.5-.9-.7s-.9-.2-1.4-.2h-1.9v12.3h-3.6ZM88.3,39.8l-3.7-7h3.9l3.8,7h-4Z"/>
      </g>
    </g>
  </g>
</svg>