<?xml version="1.0" encoding="UTF-8"?>
<svg id="Layer_1" xmlns="http://www.w3.org/2000/svg" version="1.1" viewBox="0 0 107.8 100.3">
  <!-- Generator: Adobe Illustrator 29.2.1, SVG Export Plug-In . SVG Version: 2.1.0 Build 116)  -->
  <defs>
    <style>
      .st0 {
        fill: #191919;
      }

      .st1 {
        fill: #231f20;
      }

      .st2 {
        isolation: isolate;
      }

      .st3 {
        display: none;
      }
    </style>
  </defs>
  <g id="Layer_2" class="st3">
    <g class="st2">
      <path class="st1" d="M31.4,59.9c-1.5,0-2.8-.3-3.9-.9-1.1-.6-2-1.5-2.6-2.7s-.9-2.5-.9-4.1.3-3.1,1-4.2c.7-1.2,1.6-2.1,2.7-2.7,1.1-.6,2.4-.9,3.7-.9s1.7,0,2.5.4c.8.3,1.5.6,2.1,1.1s1.1,1,1.5,1.6.6,1.3.7,2.1h-3.7c0-.3-.2-.6-.4-.8s-.4-.5-.6-.6c-.2-.2-.5-.3-.8-.4-.3,0-.7,0-1.1,0-.8,0-1.4.2-2,.5-.6.4-1,.9-1.3,1.6-.3.7-.5,1.5-.5,2.5s.1,1.8.4,2.5.7,1.2,1.3,1.6c.6.4,1.2.6,2,.6s1.3,0,1.8-.3.8-.5,1.1-1c.3-.4.4-.9.4-1.5h.7-3.8v-2.6h6.7v2c0,1.4-.3,2.5-.9,3.5-.6,1-1.4,1.7-2.4,2.2s-2.2.8-3.5.8l-.2-.2Z"/>
      <path class="st1" d="M48,59.8c-1.3,0-2.5-.2-3.4-.7-1-.5-1.7-1.1-2.3-2-.5-.8-.8-1.8-.8-3v-9.8h3.7v9.5c0,.5,0,1,.4,1.4.2.4.6.7,1,1,.4.2.9.4,1.5.4s1.1,0,1.5-.4c.4-.2.8-.6,1-1s.4-.9.4-1.4v-9.5h3.7v9.8c0,1.1-.3,2.1-.8,3s-1.3,1.5-2.3,2-2.1.7-3.4.7h-.2Z"/>
      <path class="st1" d="M61.7,44.4v15.2h-3.7v-15.2h3.7Z"/>
      <path class="st1" d="M68.9,44.4v15.2h-3.7v-15.2h3.7ZM70.9,59.7h-4.1v-3.1h4c.9,0,1.6,0,2.3-.4s1.1-.8,1.4-1.4c.3-.7.5-1.5.5-2.6s-.2-2-.5-2.6c-.3-.7-.8-1.1-1.4-1.4s-1.4-.4-2.3-.4h-4v-3.1h4.2c1.6,0,2.9.3,4.1.9,1.1.6,2,1.5,2.6,2.6s.9,2.5.9,4.1-.3,2.9-.9,4.1-1.5,2-2.6,2.6-2.5.9-4.1.9v-.2Z"/>
      <path class="st1" d="M81.7,59.7v-15.2h10.8v2.9h-7.1v3.1h6.5v2.9h-6.5v3.3h7.1v2.9h-10.8Z"/>
    </g>
    <g class="st2">
      <g class="st2">
        <path class="st1" d="M31.2,40c-1.4,0-2.6-.3-3.7-.9s-1.9-1.5-2.6-2.7c-.6-1.2-.9-2.6-.9-4.2s.3-3.1,1-4.3c.6-1.2,1.5-2.1,2.6-2.7s2.3-.9,3.7-.9,1.7.1,2.5.4c.8.2,1.5.6,2,1.1.6.5,1.1,1.1,1.4,1.8.4.7.6,1.5.7,2.4h-3.6c0-.4-.2-.7-.3-1s-.4-.6-.6-.8c-.3-.2-.6-.4-.9-.5-.3-.1-.7-.2-1.1-.2-.7,0-1.4.2-1.9.6s-1,.9-1.2,1.6c-.3.7-.4,1.5-.4,2.5s.1,1.9.4,2.6c.3.7.7,1.2,1.2,1.6.5.3,1.2.5,1.9.5s.8,0,1.1-.2c.3,0,.6-.3.9-.5.3-.2.5-.5.6-.8s.3-.6.3-1h3.6c0,.7-.3,1.4-.6,2-.3.7-.8,1.3-1.3,1.8-.6.5-1.3,1-2.1,1.3s-1.7.5-2.8.5h0Z"/>
        <path class="st1" d="M43.2,39.8v-5.5l-5.1-9.7h3.8l2.2,4.7c.2.4.4.9.6,1.4.2.5.3,1,.5,1.6h-.6c.2-.6.3-1.1.5-1.6s.3-.9.5-1.3l2.1-4.7h3.8l-5,9.7v5.5h-3.3Z"/>
        <path class="st1" d="M53.1,39.8v-15.2h6.3c1.1,0,2.1.2,2.9.5.8.3,1.3.8,1.7,1.4s.6,1.2.6,2,0,1.1-.4,1.5-.6.8-1,1.1-.9.5-1.5.6v.2c.6,0,1.2.2,1.7.5.5.3.9.7,1.3,1.3.3.5.5,1.2.5,1.9s-.2,1.5-.6,2.2c-.4.6-1,1.1-1.8,1.5s-1.7.6-2.9.6h-6.8ZM56.7,30.8h2.1c.4,0,.8,0,1.1-.2.3-.1.6-.3.7-.6.2-.3.3-.6.3-.9s-.2-.9-.6-1.2-.9-.4-1.5-.4h-2.2v3.4h.1ZM56.7,36.9h2.3c.8,0,1.4-.2,1.8-.5.4-.3.6-.7.6-1.3s0-.7-.3-1c-.2-.3-.4-.5-.8-.7s-.8-.2-1.2-.2h-2.4s0,3.7,0,3.7Z"/>
        <path class="st1" d="M67.1,39.8v-15.2h10.6v2.9h-7v3.1h6.4v2.9h-6.4v3.3h7v2.9h-10.6Z"/>
        <path class="st1" d="M80,39.8v-15.2h6.2c1.1,0,2.1.2,3,.6.8.4,1.5,1,1.9,1.8s.7,1.7.7,2.7-.2,1.9-.7,2.7c-.5.7-1.1,1.3-2,1.7-.8.4-1.8.6-3,.6h-4v-2.9h3.3c.6,0,1,0,1.4-.2s.7-.4.9-.7.3-.7.3-1.2,0-.9-.3-1.2c-.2-.3-.5-.5-.9-.7s-.9-.2-1.4-.2h-1.9v12.3h-3.6,0ZM88.3,39.8l-3.7-7h3.9l3.8,7h-4Z"/>
      </g>
    </g>
  </g>
  <path class="st0" d="M37.1,78.4c0,.3-.4.1-.6,0-1.1-.6-1.7-1.8-2.7-2.2.1.7-.2,1.3-.3,1.9s.1,1.8,0,2.3-2,2-2.2,2.1-.3-.2-.4-.4c-.2-.4-.9-2-.8-2.3,0-.7,1.2-2.1,1.5-2.8s.3-1,.3-1c0-.8-1.8.4-2.1.6-1,.7-2.5,2.7-3.4,2.9s-1.4.1-2,.2c-.3-.3.6-3.2.9-3.6s3.8-1.5,3.8-1.7c-.7-.5-2-.8-2.8-.7s-.9.5-1.4.4-2-1.6-1.9-1.7c0-.3.7-.5,1-.6.9-.6,1.9-1.6,3.1-1.2s2.9,2.1,4.6,1.7,3.2-2.8,3.9-3.5,3.2-3.7,3.4-4.3.2-1.3.1-1.6-1.2-.2-.7-.9.4-.2.5-.4c2.2-2.3,7.3-5.3,6.4-8.9s-1.6-3.5-2-4-.2-.4-.4-.4c-.2,2.6-.9,5.2-2.6,7.2s-2.3,2.3-2.6,1.9c.4-2.6,1-5.1,1.3-7.7s0-.8,0-1.2c0-.7.6-4.9.4-5.1s-.4.1-.5.4c-.7,4.1-1.7,12.6-4.6,15.6s-1,.9-1.5,1c-.5-.1.3-1.4.4-1.8,1-3.1,1.8-6.5,2.5-9.7s.9-3.8,1-5.1,0-.9-.5-.7-1,3.3-1.2,3.8c-1.4,4.6-4,12.8-9,14.4s-2.8.7-3.3.3.6-1.3.8-1.6c3-4.6,7-13.1,8.5-18.3s.4-1.6-.4-1.1-2.1,3.8-2.6,4.7c-2.6,4.5-7.3,12.9-13.2,12.1-.2,0-2.1-.6-2.2-.7s0-.4,0-.5c1.9-1.5,3.7-3.2,5.2-5.1,2.8-3.5,5.8-8,8-12s1.2-2,1.3-2.3c.2-.7,0-1-.6-.5-3.1,4-6.6,8.6-11,11.3s-6.4,2.3-9.4,0,.4-1.2,1.3-1.6c4.2-2,8.3-5.1,11.7-8.2s4.3-4.1,4.8-5.1,0-.7-.4-.6-2.9,2.1-3.6,2.6c-5,3.4-12.7,7.3-17.9,2.3s-1.6-1.9-1.3-2.2c4,.3,8.1-.7,11.8-2.1s2.1-.8,3-1.2c1.6-.7,5.1-2.5,6.2-3.7s.4-.4.3-.9c-.8-.1-1.5.5-2.2.8-6.3,2.5-15.9,4.3-19.3-3.5s.5-1.1,1.6-.7c4.6,1.6,14.3.9,18.9-.9s.7-.3.7-1c-3.4.3-6.8.7-10.2,0s-6.5-2.3-7.9-5.3-1.2-3.5-.6-3.7,2.1,1.2,2.7,1.5c3.4,1.8,8.8,3,12.6,3.3s3.6,0,3.9-.2.2-.7.1-.7-1.6,0-1.9,0c-5.1-.4-12.5-4-13-9.7s0-2.9,0-3.1.2-.2.4-.1,1.4,1.5,1.7,1.8c2.2,2.1,5.1,3.8,8,4.8,5.2,1.9,10.4,1.4,15.6,2.9s8,4,3.7,7.7-3.3,1.7-3.8,2.9c-1.5,4.1,2.8,7.6,6.5,7.9s4.4-1.6,6.4-4.7,3.5-3.6,3.3-6.4-1-1.9-2.1-2.4-.7-.1-.9-.2-.6-.5-.9-.7c-.7-.3-1.7-.3-2.4.1s-1.3,2.1-1.8,0,.3-3.9,1.7-5,1.9-.5,2.7-1,.8-.9,1.5-1.2c1.5-.6,4.7-.5,6.3-.2,2.6.4,5,1.5,7.6,1.7.2.3-.7,1-.9,1.2-.5.4-1,.3-.5.9s3.1,1.9.5,2c.1.5,1.5,2.7,1.2,3s-.9-.2-.9-.1c.1.5.5.8.6,1.3s.5,2.5-.5,1.6c.2,1.8-.6,4.8,0,6.5s1.7,2.6,2.2,2.9c.8.5,2.8.5,3.8.5,3.6-.3,7.6-3.7,6.5-7.6-.5-1.6-2.5-2-3.7-2.9s-2.6-3.4-1.2-5.2c2.7-3.6,11.4-3.6,15.6-4.4s9.8-3.2,13.1-6.5,1.5-2.4,1.8-.8c1,6.7-6,11.3-11.7,12.2s-2.4,0-3,.3.2.7.7.8c4.1.5,10.9-1.1,14.6-2.8s2.4-1.4,3.6-2.1c.1,0,.3,0,.3.2.3,1.4-.6,3.5-1.4,4.7-3.3,4.8-10.8,4.8-16,4.2s-1.2-.5-1.3,0,.3.6.8.8c4.2,1.8,14.2,2.4,18.6.9s2.5-1.6,1.6.6c-2.8,7.4-12,6.3-18,4s-2.9-1.5-3.3-1.2-.2.4-.1.6,1.3,1.1,1.5,1.2c4.2,3,12.7,6.2,17.8,6.3s1.4-.2,2.2-.1c.3.3-1.3,2-1.6,2.3-5.3,4.9-13.2.8-18.1-2.7s-2.2-2-2.8-2.2-1.1-.2-.8.6,3.7,4.1,4.7,5c3.9,3.6,8.5,7,13.5,8.8.5.4-.8,1.2-1.1,1.4-3.9,2.4-7.2.9-10.5-1.5s-5.5-5-7.7-7.8-1.2-2.5-2.4-2.4c0,.3,0,.5,0,.8.4,1.2,2.1,4.1,2.8,5.4,1.8,3.3,4.2,7.1,6.5,10s2.5,2.6,3.7,4c0,.3-.4.4-.6.5-1.5.6-4.3.7-5.8,0-3.3-1.5-6.6-7-8.3-10.2s-1.8-3.8-2.8-5.6c-.2-.2-.6-.1-.9-.1-.2.2.3,2.3.4,2.7,1.3,5.1,3.6,11.7,6.1,16.3.2.4,1.4,1.8.4,1.7s-2.8-.7-3.7-1.2c-4.2-2.5-6.8-11.1-7.9-15.7s.1-1.7-1-1.5c0,.5,0,1.1,0,1.7.3,3.8,1.1,7,1.8,10.7s.1,1.4.3,2c-.2,0-.4,0-.7,0-.4-.2-2.2-1.8-2.5-2.2-1.9-2.2-2.2-4.6-2.5-7.5l-2.5,4.7c-.9,4.9,4.9,6.5,7.1,9.8-.8.7-1.3.3-1,1.6s2.5,3.6,3.1,4.4,3.6,3.8,4.3,4,1.7-.1,2.3-.4,2.2-1.5,3.1-1.4,2.1,1.4,3,1.7c.1,0,.2.2.1.4,0,.3-1.7,1.5-2,1.6s-1.2-.4-1.8-.4-3,.4-2,1,3.3,1,3.7,1.7c.6.9.7,2.4.8,3.5-.7-.2-1.8,0-2.4-.2s-2-2.1-2.6-2.7c-.5-.1-1.9-1.3-2.2-1.2-.6.1,0,1.1,0,1.5.3.6,1.5,2.5,1.6,2.8s-1,2.5-1.1,2.5c-.4.3-1.4-.8-1.7-1.1-1.2-1.3-.6-1.6-.8-3.3-.4-.8,0-2.5-1.1-1.4s-1.1,1.4-1.9,1.8-.5.3-.7,0c.2-.7,0-2.3.3-2.8s1.9-.9,2-1.2c0-.3-.2-.7-.4-1.1-.7-1.5-3.8-4-5.2-5.1s-.5-.9-1-.9c0,.3-.4,1.2-.8,1s-1.3-1.1-1.5-1.3-.5-.7-.7-.8,0,.7-.8.1-2-2.5-2.4-3.2-.8-1.7-.8-1.7-1.1.3-1.2.7.5,2.3.6,2.9c.9,3.1,3.3,7,5.7,9.1s2.3,1.5,2.3,1.7c0,.4-1.5,2.1-1.8,2.2-.8.3-2.3-1.4-2.8-2-1-1.2-1.6-2.6-2.4-3.8l-1.7-4.1c.6,3.9,2.2,8.6,4.6,11.7s2.1,2.4,2.5,2.4h2c.1-.8,0-1.8.9-2.2,1.7-.6,3,2,.7,3.3s-2.2.5-3.5.1c.1.8,1.4,1.5,2.1,1.7s2.1,0,2,.6c-.3,1.1-2.7,3.1-3.9,2.1.1,1.1-.2,1.9-.9,2.7s-2,1.8-2,1.1v-2.1c0-1.2-2.5-4.3-3.2-5.5-2.4-4.6-2.7-10.3-3.4-15.4-.2,0-.1.3-.1.5,0,1.9,0,4.1,0,6,.2,3.4.9,7.9,1.8,11.2s1.7,4.7,1.5,4.9l-1.8-.4c-.3,1.5-.8,3-1.5,4.3s-1.5,2.2-1.8,2.2-1.9-2.1-2.1-2.6c-.6-1.1-1.1-2.7-1.3-4-.4-.1-2,.9-1.9,0,.4-1.4,1-2.6,1.4-4,1.5-5.2,2.2-10.8,2-16.2s0-1.3,0-1.9l-.4,1.8c-.7,4.7-1.1,9.7-3.5,14s-2.8,3.5-3,5.6.3,2.2-.5,1.8-1.3-1-1.5-1.3c-.6-.7-.8-1.5-.7-2.5-1.3.4-2.3,0-3.2-1-2-2,0-1.6,1.2-1.8s1.7-.9,2.1-1.7c-1.2.4-2.7.6-3.8-.2-2.2-1.5-.1-4.3,1.4-2.9s.4,1.8.6,1.9c.6,0,1.4.1,2,0,1.7-.5,3.8-4.3,4.6-5.8,1.2-2.6,2.1-5.4,2.5-8.2l-2.1,4.8c-1,1.6-2,3.3-3.3,4.6s-1,.7-1.6.5-1.8-1.8-1.7-2.2,1.9-1.3,2.2-1.5c2.4-2,4.6-5.5,5.6-8.4s1-3.4.9-3.8-1.1-.7-1.2-.6c-.2.7-.5,1.3-.9,1.8s-2.4,3.3-2.9,3.3-.4-.3-.4-.3-.4.5-.5.7c-.2.2-1.3,1.1-1.5,1.2-.6.1-.6-1.1-1.1-.8l-4.5,4.1c-.4.5-2.2,2.4-1.8,3s2.1.9,2.1,1.5.1,2.1,0,2.5ZM51.7,11.9c-.6-.1-.3-.1-1,0-.4,0-.8.2-1,.5-.4.4-.5,1,0,1.3.9.4,1.8,0,2.4-.6s.3-1.1-.5-1.2Z"/>
</svg>