<?xml version="1.0" encoding="UTF-8"?>
<svg id="Layer_1" data-name="Layer 1" xmlns="http://www.w3.org/2000/svg" viewBox="0 0 61.3 49.81">
  <defs>
    <style>
      .cls-1 {
        fill: #f2cf04;
      }

      .cls-2 {
        fill: #231f20;
      }

      .cls-3 {
        fill: #ed1c24;
      }
    </style>
  </defs>
  <g>
    <path class="cls-2" d="M1.33,15.12l.58-.66C9.59,5.78,19.79,1,30.65,1s21.07,4.78,28.73,13.46l.58.66-29.32,33.18L1.33,15.12Z"/>
    <path d="M30.65,2c10.13,0,20.26,4.37,27.98,13.12l-27.98,31.67L2.67,15.12C10.4,6.37,20.52,2,30.65,2M30.65,0C19.5,0,9.03,4.9,1.17,13.79l-1.17,1.32,1.17,1.32,27.98,31.67,1.5,1.7,1.5-1.7,27.98-31.67,1.17-1.32-1.17-1.32C52.27,4.9,41.8,0,30.65,0h0Z"/>
  </g>
  <g>
    <path class="cls-3" d="M9.08,23.88l.58-.66c5.6-6.34,13.05-9.83,20.99-9.83s15.39,3.49,20.99,9.83l.58.66-21.57,24.42L9.08,23.88Z"/>
    <path d="M30.65,14.39c7.33,0,14.65,3.16,20.24,9.49l-20.24,22.91L10.41,23.88c5.59-6.33,12.91-9.49,20.24-9.49M30.65,12.39c-8.23,0-15.95,3.61-21.74,10.16l-1.17,1.32,1.17,1.32,20.24,22.91,1.5,1.7,1.5-1.7,20.24-22.91,1.17-1.32-1.17-1.32c-5.79-6.55-13.51-10.16-21.74-10.16h0Z"/>
  </g>
  <g>
    <path class="cls-1" d="M18.45,34.49l.58-.66c3.1-3.5,7.22-5.43,11.62-5.43s8.52,1.93,11.62,5.43l.58.66-12.2,13.81-12.2-13.81Z"/>
    <path d="M30.65,29.39c3.93,0,7.87,1.7,10.87,5.09l-10.87,12.3-10.87-12.3c3-3.4,6.93-5.09,10.87-5.09M30.65,27.39c-4.69,0-9.08,2.05-12.37,5.77l-1.17,1.32,1.17,1.32,10.87,12.3,1.5,1.7,1.5-1.7,10.87-12.3,1.17-1.32-1.17-1.32c-3.29-3.72-7.68-5.77-12.37-5.77h0Z"/>
  </g>
</svg>