<?xml version="1.0" encoding="UTF-8"?>
<svg id="Layer_1" xmlns="http://www.w3.org/2000/svg" version="1.1" viewBox="0 0 414.2 288.2">
  <!-- Generator: Adobe Illustrator 29.2.1, SVG Export Plug-In . SVG Version: 2.1.0 Build 116)  -->
  <defs>
    <style>
      .st0, .st1 {
        fill: #f2cf04;
      }

      .st2 {
        fill: #231f20;
      }

      .st1 {
        stroke-width: 39.2px;
      }

      .st1, .st3 {
        stroke: #231f20;
        stroke-miterlimit: 10;
      }

      .st4 {
        fill: #ed1c24;
      }

      .st3 {
        fill: none;
        stroke-width: 33.6px;
      }
    </style>
  </defs>
  <path class="st2" d="M100,156.6h16.2c0,2.5-.6,4.7-1.8,6.6-1.2,2-3.1,3.5-5.5,4.6-2.4,1.1-5.4,1.6-8.9,1.6s-7.2-.9-10-2.6c-2.8-1.8-4.9-4.3-6.4-7.6-1.5-3.3-2.2-7.3-2.2-12.1s.8-8.7,2.3-12c1.5-3.3,3.7-5.8,6.5-7.5,2.8-1.7,6.1-2.6,9.8-2.6s3.7.2,5.3.6c1.6.4,3,1,4.2,1.9,1.3.8,2.3,1.8,3.2,3,.9,1.2,1.5,2.5,2,4h18.6c-.5-3.6-1.7-6.9-3.5-9.9-1.9-3-4.3-5.6-7.3-7.8-3-2.2-6.4-3.9-10.3-5.1-3.8-1.2-8-1.8-12.5-1.8-6.9,0-13.2,1.5-18.7,4.4-5.6,2.9-10,7.2-13.3,12.8-3.3,5.6-5,12.3-5,20.3s1.6,14.2,4.7,19.8,7.5,9.8,13.1,12.9c5.6,3,12.1,4.5,19.4,4.5s12.5-1.2,17.7-3.7,9.2-6,12.1-10.7c2.9-4.6,4.4-10.2,4.4-16.7v-9.9h-34v13Z"/>
  <path class="st2" d="M193,156.4c0,2.6-.6,4.8-1.8,6.8-1.2,2-2.9,3.6-5.1,4.7-2.2,1.1-4.7,1.7-7.6,1.7s-5.4-.6-7.6-1.7c-2.2-1.1-3.8-2.7-5.1-4.7-1.2-2-1.8-4.3-1.8-6.8v-45.7h-18v47.2c0,5.4,1.4,10.2,4.1,14.2,2.7,4,6.6,7.2,11.6,9.4,5,2.2,10.7,3.3,17.3,3.3s12.3-1.1,17.3-3.3c5-2.2,8.8-5.3,11.6-9.4s4.1-8.8,4.1-14.2v-47.2h-19v45.7Z"/>
  <rect class="st2" x="230" y="110.6" width="19" height="73"/>
  <path class="st2" d="M318.2,115c-5.7-2.9-12.5-4.4-20.5-4.4h-28.7v73h28.7c7.9,0,14.8-1.5,20.5-4.4,5.7-2.9,10.2-7.1,13.2-12.6s4.6-12,4.6-19.6-1.6-14.1-4.7-19.5c-3.1-5.5-7.5-9.6-13.2-12.6ZM314.5,159.7c-1.6,3.2-3.9,5.5-6.9,6.8s-6.8,2.1-11.2,2.1h-9.3v-43h9.1c4.5,0,8.3.7,11.4,2.1s5.4,3.7,7,6.8c1.6,3.2,2.4,7.3,2.4,12.5s-.8,9.4-2.3,12.6Z"/>
  <polygon class="st2" points="402 124.6 402 110.6 348 110.6 348 183.6 402 183.6 402 169.6 366 169.6 366 153.6 399 153.6 399 139.6 366 139.6 366 124.6 402 124.6"/>
  <path class="st2" d="M79.3,87.6c5.1,2.8,10.9,4.3,17.3,4.3s9.2-.8,12.9-2.3,7-3.5,9.7-6.1c2.7-2.5,4.8-5.4,6.3-8.4,1.5-3.1,2.4-6.2,2.7-9.4h-17.1c-.3,1.8-.8,3.3-1.6,4.7s-1.8,2.6-3,3.6c-1.2,1-2.6,1.7-4.2,2.3-1.6.5-3.4.8-5.3.8-3.4,0-6.4-.8-8.9-2.4-2.5-1.6-4.5-4.1-5.8-7.3-1.4-3.2-2.1-7.2-2.1-12s.7-8.6,2-11.8c1.4-3.2,3.3-5.7,5.8-7.5,2.5-1.7,5.6-2.6,9-2.6s3.7.3,5.3.8c1.6.5,3,1.3,4.2,2.3,1.2,1,2.2,2.2,2.9,3.6s1.3,3,1.6,4.7h17.1c-.5-4.2-1.6-7.9-3.4-11.1-1.7-3.2-4-6-6.8-8.2-2.8-2.2-6-3.9-9.6-5.1-3.6-1.2-7.5-1.7-11.8-1.7-6.3,0-12.1,1.4-17.2,4.3-5.1,2.8-9.2,7-12.2,12.5-3,5.5-4.5,12.1-4.5,20s1.5,14.4,4.4,19.9c3,5.5,7,9.6,12.1,12.5Z"/>
  <path class="st2" d="M157,91.6h17v-26.5l26.2-46.5h-20l-10.8,22.4c-1.1,2.1-2,4.3-2.8,6.5-.3.9-.7,1.9-1,3-.4-1-.7-2-1.1-2.9-.9-2.2-1.9-4.4-3-6.5l-11.3-22.4h-20l26.8,46.5v26.5Z"/>
  <path class="st2" d="M255.8,56.1c-2.4-1.5-5-2.2-7.8-2.3v-.8c2.6-.6,4.8-1.5,6.8-3s3.5-3.2,4.6-5.4,1.7-4.6,1.7-7.4-.9-6.9-2.7-9.7c-1.8-2.8-4.5-4.9-8-6.5-3.6-1.6-8-2.3-13.2-2.3h-29.2v73h31.4c5.2,0,9.7-.9,13.3-2.6,3.6-1.8,6.4-4.2,8.3-7.3,1.9-3.1,2.9-6.6,2.9-10.5s-.7-6.6-2.2-9.2c-1.5-2.6-3.4-4.6-5.8-6ZM224,32.6h9.7c2.8,0,5,.7,6.7,2.1s2.5,3.3,2.5,5.7-.4,3.2-1.2,4.4c-.8,1.2-1.9,2.1-3.4,2.8-1.4.6-3,1-4.9,1h-9.4v-16ZM243.2,75.4c-1.8,1.5-4.6,2.3-8.3,2.3h-10.8v-18h11.2c2.2,0,4.1.4,5.7,1.2s2.8,1.9,3.7,3.3c.9,1.4,1.3,3.1,1.3,5s-.9,4.7-2.7,6.2Z"/>
  <polygon class="st2" points="327 77.6 293 77.6 293 61.6 324 61.6 324 47.6 293 47.6 293 32.6 327 32.6 327 18.6 276 18.6 276 91.6 327 91.6 327 77.6"/>
  <path class="st2" d="M360,66.6h9.2l13.2,25h19.6l-15.2-27.9s0,0,0,0c4-1.8,7.2-4.5,9.4-8.1,2.2-3.5,3.3-7.8,3.3-12.8s-1.1-9.3-3.2-12.9-5.2-6.4-9.2-8.4c-4-2-8.7-3-14.2-3h-29.9v73h17v-25ZM368.9,32.6c2.7,0,4.9.4,6.7,1.1s3.2,1.9,4.1,3.4c.9,1.5,1.4,3.4,1.4,5.6s-.5,4.1-1.4,5.5-2.3,2.5-4.1,3.3-4,1.1-6.7,1.1h-8.9v-20h8.8Z"/>
  <rect class="st1" x="30.5" y="223.1" width="355" height="34"/>
  <g>
    <rect class="st2" x="25" y="225.6" width="120" height="29"/>
    <rect class="st4" x="145" y="225.6" width="120" height="29"/>
    <rect class="st0" x="265" y="225.6" width="120" height="29"/>
  </g>
  <line class="st3" x1="27" y1="275.6" x2="27" y2="12.6"/>
</svg>