<?xml version="1.0" encoding="UTF-8"?>
<svg id="Layer_1" xmlns="http://www.w3.org/2000/svg" version="1.1" viewBox="0 0 75.8 75.8">
  <!-- Generator: Adobe Illustrator 29.2.1, SVG Export Plug-In . SVG Version: 2.1.0 Build 116)  -->
  <defs>
    <style>
      .st0 {
        fill: #ffda00;
      }

      .st1 {
        fill: #231f20;
      }

      .st2 {
        fill: #ed1c24;
      }

      .st3 {
        fill: #bab3b3;
      }
    </style>
  </defs>
  <rect class="st3" x="1.2" y="1.2" width="73.3" height="73.3" rx="18.6" ry="18.6"/>
  <g>
    <path class="st1" d="M8.6,29.1l.6-.7c7.7-8.7,17.9-13.5,28.7-13.5s21.1,4.8,28.7,13.5l.6.7-29.3,33.2L8.6,29.1Z"/>
    <path d="M37.9,16c10.1,0,20.3,4.4,28,13.1l-28,31.7L9.9,29.1c7.7-8.8,17.9-13.1,28-13.1M37.9,14c-11.1,0-21.6,4.9-29.5,13.8l-1.2,1.3,1.2,1.3,28,31.7,1.5,1.7,1.5-1.7,28-31.7,1.2-1.3-1.2-1.3c-7.9-8.9-18.3-13.8-29.5-13.8h0Z"/>
  </g>
  <g>
    <path class="st2" d="M16.3,37.9l.6-.7c5.6-6.3,13-9.8,21-9.8s15.4,3.5,21,9.8l.6.7-21.6,24.4s-21.6-24.4-21.6-24.4Z"/>
    <path d="M37.9,28.4c7.3,0,14.6,3.2,20.2,9.5l-20.2,22.9-20.2-22.9c5.6-6.3,12.9-9.5,20.2-9.5M37.9,26.4c-8.2,0-15.9,3.6-21.7,10.2l-1.2,1.3,1.2,1.3,20.2,22.9,1.5,1.7,1.5-1.7,20.2-22.9,1.2-1.3-1.2-1.3c-5.8-6.6-13.5-10.2-21.7-10.2h0Z"/>
  </g>
  <path class="st0" d="M25.7,48.5l.6-.7c3.1-3.5,7.2-5.4,11.6-5.4s8.5,1.9,11.6,5.4l.6.7-12.2,13.8s-12.2-13.8-12.2-13.8Z"/>
  <path d="M37.9,43.4c3.9,0,7.9,1.7,10.9,5.1l-10.9,12.3-10.9-12.3c3-3.4,6.9-5.1,10.9-5.1M37.9,41.4c-4.7,0-9.1,2-12.4,5.8l-1.2,1.3,1.2,1.3,10.9,12.3,1.5,1.7,1.5-1.7,10.9-12.3,1.2-1.3-1.2-1.3c-3.3-3.7-7.7-5.8-12.4-5.8h0Z"/>
</svg>