<?xml version="1.0" encoding="UTF-8"?>
<svg id="Layer_1" data-name="Layer 1" xmlns="http://www.w3.org/2000/svg" viewBox="0 0 82.13 57.14">
  <defs>
    <style>
      .cls-1, .cls-2 {
        fill: #f2cf04;
      }

      .cls-3 {
        fill: none;
        stroke-width: 7px;
      }

      .cls-3, .cls-2 {
        stroke: #231f20;
        stroke-miterlimit: 10;
      }

      .cls-4 {
        fill: #231f20;
      }

      .cls-2 {
        stroke-width: 8.12px;
      }

      .cls-5 {
        fill: #ed1c24;
      }
    </style>
  </defs>
  <path class="cls-4" d="M18.72,32.3h3.1c-.01.52-.13.99-.36,1.38-.25.42-.62.74-1.1.97-.48.22-1.08.34-1.78.34-.78,0-1.45-.18-2-.55-.56-.37-.98-.9-1.28-1.59-.3-.7-.44-1.54-.44-2.53s.15-1.82.45-2.51c.3-.69.73-1.22,1.29-1.58.56-.36,1.21-.54,1.97-.54.39,0,.74.04,1.06.13.32.09.6.22.85.39.25.17.46.39.63.63.17.25.3.53.39.84h3.72c-.1-.76-.33-1.45-.7-2.08-.37-.63-.86-1.18-1.46-1.64-.6-.46-1.29-.82-2.05-1.07-.77-.25-1.6-.38-2.5-.38-1.38,0-2.63.31-3.75.92-1.12.62-2.01,1.51-2.67,2.68-.66,1.17-1,2.58-1,4.25s.31,2.98.94,4.15,1.5,2.06,2.62,2.69c1.12.63,2.42.95,3.89.95,1.33,0,2.51-.26,3.54-.78s1.84-1.26,2.42-2.23c.58-.97.88-2.13.88-3.49v-2h-6.66v2.65Z"/>
  <path class="cls-4" d="M38.01,32.25c0,.53-.12,1.01-.36,1.42-.24.42-.58.74-1.01.98-.43.24-.94.35-1.51.35s-1.07-.12-1.5-.35c-.43-.24-.76-.56-1.01-.98-.24-.42-.37-.89-.37-1.42v-9.53h-3.68v9.82c0,1.13.27,2.12.82,2.96.55.84,1.31,1.49,2.29,1.95.98.46,2.13.69,3.44.69s2.45-.23,3.44-.69c.98-.46,1.75-1.11,2.3-1.95s.82-1.83.82-2.96v-9.82h-3.68v9.53Z"/>
  <rect class="cls-4" x="45.17" y="22.72" width="3.68" height="15.23"/>
  <path class="cls-4" d="M62.13,23.64c-1.14-.61-2.5-.91-4.08-.91h-5.71v15.23h5.71c1.58,0,2.94-.3,4.08-.91,1.14-.61,2.02-1.48,2.64-2.62s.92-2.5.92-4.08-.31-2.94-.93-4.08c-.62-1.14-1.5-2.01-2.64-2.62ZM61.55,32.98c-.31.67-.78,1.15-1.39,1.44s-1.37.44-2.26.44h-1.88v-9.06h1.83c.91,0,1.67.15,2.29.44s1.08.78,1.4,1.44c.32.66.48,1.55.48,2.64s-.16,1.98-.47,2.65Z"/>
  <polygon class="cls-4" points="78.62 25.66 78.62 22.72 67.84 22.72 67.84 37.95 78.61 37.95 78.61 35.01 71.52 35.01 71.52 31.69 78.06 31.69 78.06 28.81 71.52 28.81 71.52 25.66 78.62 25.66"/>
  <path class="cls-4" d="M14.64,17.38c1.09.61,2.32.91,3.69.91,1.04,0,1.96-.16,2.76-.48s1.49-.75,2.06-1.29c.57-.54,1.01-1.14,1.33-1.8.32-.66.51-1.33.58-2.01h-3.65c-.06.37-.18.71-.35,1.01s-.38.55-.64.76c-.26.21-.56.37-.9.48-.34.11-.72.16-1.12.16-.73,0-1.36-.17-1.9-.52-.54-.35-.95-.87-1.25-1.56-.3-.69-.44-1.54-.44-2.56s.14-1.83.43-2.52c.29-.69.71-1.22,1.25-1.59.54-.37,1.18-.55,1.93-.55.41,0,.78.05,1.12.16.34.11.64.27.89.48.26.21.46.47.63.76s.28.63.34,1.01h3.65c-.11-.89-.35-1.67-.72-2.37-.37-.69-.85-1.28-1.45-1.75-.59-.48-1.27-.84-2.04-1.09-.77-.25-1.61-.37-2.51-.37-1.35,0-2.57.3-3.66.91-1.09.61-1.95,1.49-2.59,2.66-.64,1.17-.96,2.59-.96,4.26s.31,3.08.95,4.24c.63,1.17,1.49,2.05,2.58,2.66Z"/>
  <path class="cls-4" d="M30.33,18.08h3.23v-5.52l4.98-9.71h-3.79l-2.05,4.67c-.2.44-.38.89-.54,1.35-.06.19-.13.4-.2.62-.07-.21-.14-.42-.21-.61-.17-.46-.35-.91-.56-1.36l-2.15-4.67h-3.81l5.1,9.71v5.52Z"/>
  <path class="cls-4" d="M50.58,10.66c-.52-.3-1.08-.47-1.69-.49v-.16c.55-.12,1.04-.32,1.47-.62s.76-.67,1-1.12.36-.97.36-1.55c0-.77-.19-1.44-.58-2.02-.38-.58-.96-1.03-1.73-1.35-.77-.33-1.72-.49-2.85-.49h-6.32v15.23h6.79c1.13,0,2.09-.18,2.87-.55.78-.37,1.38-.87,1.79-1.51.41-.64.62-1.37.62-2.19,0-.74-.16-1.37-.48-1.91-.32-.54-.74-.96-1.26-1.26ZM43.85,5.73h2.16c.62,0,1.11.15,1.48.45s.55.71.55,1.22c0,.37-.09.68-.27.94-.18.26-.43.45-.75.59-.32.14-.68.2-1.08.2h-2.1v-3.39ZM47.98,14.7c-.38.31-.98.47-1.79.47h-2.33v-3.7h2.4c.48,0,.89.08,1.23.24s.61.39.79.68c.18.29.28.64.28,1.03,0,.55-.19.97-.58,1.28Z"/>
  <polygon class="cls-4" points="64.82 15.14 57.87 15.14 57.87 11.83 64.28 11.83 64.28 8.94 57.87 8.94 57.87 5.8 64.83 5.8 64.83 2.85 54.26 2.85 54.26 18.08 64.82 18.08 64.82 15.14"/>
  <path class="cls-4" d="M70.74,12.84h1.96l2.79,5.24h3.96l-3.18-5.81s0,0,0,0c.84-.38,1.5-.94,1.95-1.68.46-.74.69-1.63.69-2.67s-.22-1.93-.67-2.69-1.08-1.34-1.92-1.75c-.83-.41-1.82-.62-2.96-.62h-6.24v15.23h3.61v-5.24ZM72.6,5.78c.57,0,1.04.08,1.42.24s.67.4.86.71c.19.31.29.71.29,1.19s-.1.86-.29,1.17-.48.54-.86.69-.85.22-1.42.22h-1.87v-4.21h1.86Z"/>
  <rect class="cls-2" x="4.06" y="46.08" width="74.01" height="7"/>
  <g>
    <rect class="cls-4" x="3.07" y="46.58" width="25" height="6"/>
    <rect class="cls-5" x="28.07" y="46.58" width="25" height="6"/>
    <rect class="cls-1" x="53.07" y="46.58" width="25" height="6"/>
  </g>
  <line class="cls-3" x1="3.57" y1="49.58" x2="3.57" y2=".35"/>
</svg>