<?xml version="1.0" encoding="UTF-8"?>
<svg id="Passwort" xmlns="http://www.w3.org/2000/svg" viewBox="0 0 392.36 235.22">
  <defs>
    <style>
      .cls-1 {
        fill: #d0342c;
        opacity: .03;
      }

      .cls-2 {
        fill: #f73e3e;
      }

      .cls-3 {
        stroke: #f73e3e;
      }

      .cls-3, .cls-4, .cls-5 {
        fill: none;
        stroke-miterlimit: 10;
        stroke-width: 2px;
      }

      .cls-4 {
        stroke: #600606;
      }

      .cls-5 {
        stroke: #c9a9a9;
      }
    </style>
  </defs>
  <circle class="cls-1" cx="224.55" cy="113.85" r="55"/>
  <polyline class="cls-4" points="212.55 118.85 124.55 118.85 124.55 78.85 219.55 78.85 219.55 107.85"/>
  <line class="cls-4" x1="148.55" y1="92.85" x2="148.55" y2="105.85"/>
  <line class="cls-4" x1="142.45" y1="95.8" x2="153.7" y2="102.3"/>
  <line class="cls-4" x1="153.7" y1="95.8" x2="142.45" y2="102.3"/>
  <g>
    <line class="cls-5" x1="171.55" y1="92.85" x2="171.55" y2="105.85"/>
    <line class="cls-5" x1="166.14" y1="95.8" x2="177.4" y2="102.3"/>
    <line class="cls-5" x1="177.4" y1="95.8" x2="166.14" y2="102.3"/>
  </g>
  <g>
    <line class="cls-5" x1="196.55" y1="92.85" x2="196.55" y2="105.85"/>
    <line class="cls-5" x1="190.92" y1="95.8" x2="202.17" y2="102.3"/>
    <line class="cls-5" x1="202.17" y1="95.8" x2="190.92" y2="102.3"/>
  </g>
  <polygon class="cls-3" points="228.45 93.26 203.17 134.85 228.45 134.85 253.74 134.85 228.45 93.26"/>
  <g>
    <rect class="cls-2" x="227.55" y="108.85" width="2" height="14"/>
    <rect class="cls-2" x="227.55" y="124.85" width="2" height="2"/>
  </g>
</svg>