<?xml version="1.0" encoding="UTF-8"?>
<svg id="Phishing" xmlns="http://www.w3.org/2000/svg" viewBox="0 0 392.36 235.22">
  <defs>
    <style>
      .cls-1 {
        fill: #d0342c;
        opacity: .03;
      }

      .cls-2 {
        stroke: #ff382e;
      }

      .cls-2, .cls-3, .cls-4 {
        fill: none;
      }

      .cls-2, .cls-3, .cls-4, .cls-5 {
        stroke-miterlimit: 10;
        stroke-width: 2px;
      }

      .cls-6 {
        fill: #ff382e;
      }

      .cls-3, .cls-5 {
        stroke: #600606;
      }

      .cls-4 {
        stroke: #c9a9a9;
      }

      .cls-5 {
        fill: #f6f6f6;
      }
    </style>
  </defs>
  <circle class="cls-1" cx="203.55" cy="88.85" r="55"/>
  <polyline class="cls-3" points="233.55 111.85 240.56 111.85 243.55 111.85 243.55 162.85 142.55 162.85 142.55 149.85"/>
  <g>
    <rect class="cls-6" x="205.55" y="79.85" width="2" height="2"/>
    <rect class="cls-6" x="205.55" y="83.85" width="2" height="15"/>
    <path class="cls-6" d="M205.55,77.85h2v-7.35c3.66-.54,6.39-3.96,5.78-7.88-.43-2.79-2.62-5.09-5.39-5.64-4.39-.86-8.25,2.49-8.25,6.73,0,3.44,2.55,6.3,5.86,6.78v7.35ZM202.14,63.67c0-2.68,2.18-4.86,4.86-4.86s4.87,2.18,4.87,4.86-2.18,4.86-4.87,4.86-4.86-2.18-4.86-4.86Z"/>
  </g>
  <rect class="cls-3" x="132.55" y="98.85" width="101" height="51"/>
  <path class="cls-2" d="M193.83,113.61c-6.23,0-11.28-5.05-11.28-11.28v-15.51s0-.84,0-.84v-4.38s5.94,5.47,5.94,5.47"/>
  <line class="cls-4" x1="167.55" y1="110.85" x2="143.55" y2="110.85"/>
  <line class="cls-5" x1="159.55" y1="116.85" x2="143.55" y2="116.85"/>
  <line class="cls-3" x1="233.7" y1="150.64" x2="243.33" y2="111.2"/>
</svg>