<?xml version="1.0" encoding="UTF-8"?>
<svg xmlns="http://www.w3.org/2000/svg" version="1.1" viewBox="0 0 393 235">
  <!-- Generator: Adobe Illustrator 29.2.1, SVG Export Plug-In . SVG Version: 2.1.0 Build 116)  -->
  <defs>
    <style>
      .st0 {
        fill: #d0342c;
        opacity: .03;
      }

      .st1 {
        fill: #d7c8c7;
      }

      .st2 {
        fill: #f73e3e;
      }

      .st3 {
        fill: #600606;
      }

      .st4 {
        opacity: .3;
      }

      .st5 {
        stroke: #f73e3e;
      }

      .st5, .st6, .st7, .st8, .st9 {
        fill: none;
      }

      .st5, .st6, .st7, .st8, .st9, .st10 {
        stroke-miterlimit: 10;
        stroke-width: 2px;
      }

      .st6 {
        stroke: #f6f6f6;
      }

      .st7 {
        stroke: #ff382e;
      }

      .st11 {
        fill: #ff382e;
      }

      .st12 {
        opacity: .2;
      }

      .st8, .st10 {
        stroke: #600606;
      }

      .st9 {
        stroke: #c9a9a9;
      }

      .st13 {
        display: none;
      }

      .st10 {
        fill: #f6f6f6;
      }

      .st14 {
        fill: #c9a9a9;
      }
    </style>
  </defs>
  <g id="Rahmen" class="st13">
    <path class="st1" d="M391.81,1.15v233.22H1.45V1.15h390.36M392.81.15H.45v235.22h392.36V.15h0Z"/>
  </g>
  <g id="Text" class="st13">
    <g class="st12">
      <g>
        <path class="st3" d="M106.4,208.59c-.98,0-1.83-.16-2.55-.47s-1.28-.75-1.69-1.33c-.41-.58-.63-1.26-.67-2.06h2.01c.04.47.19.87.46,1.18s.61.54,1.04.69.89.23,1.39.23c.56,0,1.05-.09,1.48-.26s.77-.42,1.02-.74.38-.69.38-1.11c0-.38-.11-.69-.33-.94-.22-.24-.52-.44-.89-.61s-.8-.3-1.27-.43l-1.53-.42c-1.07-.29-1.91-.71-2.51-1.27s-.9-1.29-.9-2.19c0-.76.2-1.42.61-1.98s.96-1,1.66-1.32,1.49-.47,2.37-.47,1.69.16,2.37.47,1.22.74,1.61,1.29.59,1.17.61,1.86h-1.95c-.06-.6-.34-1.06-.83-1.39s-1.11-.49-1.85-.49c-.53,0-.99.08-1.38.25s-.69.39-.91.68c-.21.29-.32.62-.32.99,0,.42.13.75.38,1.01.25.26.57.46.93.61.37.15.72.27,1.05.36l1.27.33c.42.11.85.25,1.29.43.44.18.85.41,1.23.7s.68.64.91,1.05.35.92.35,1.52c0,.74-.19,1.4-.57,1.98s-.93,1.04-1.66,1.37c-.72.33-1.6.5-2.62.5Z"/>
        <path class="st3" d="M117.61,208.57c-.93,0-1.73-.21-2.42-.63s-1.22-1.01-1.6-1.78-.57-1.65-.57-2.65.19-1.91.57-2.68c.38-.76.91-1.36,1.6-1.78s1.49-.63,2.42-.63c.51,0,.99.07,1.43.2.45.13.85.32,1.21.57s.67.55.91.91c.25.36.44.77.56,1.22l-1.84.44c-.06-.25-.16-.48-.3-.69s-.3-.39-.49-.54-.41-.27-.66-.35-.52-.12-.82-.12c-.59,0-1.08.16-1.47.47s-.68.73-.87,1.25-.29,1.1-.29,1.73.1,1.2.29,1.72c.19.52.48.93.87,1.24s.88.47,1.47.47c.3,0,.58-.04.83-.13.25-.08.48-.2.68-.36s.37-.34.5-.56c.13-.22.23-.46.29-.73l1.83.44c-.12.46-.3.88-.55,1.24-.25.37-.56.68-.92.94s-.77.45-1.22.59-.93.2-1.45.2Z"/>
        <path class="st3" d="M125.81,202.55v5.82h-1.93v-13.1h1.92v5.68h-.25c.29-.88.7-1.52,1.25-1.92s1.2-.61,1.98-.61c.67,0,1.25.14,1.75.42s.89.7,1.17,1.24.42,1.23.42,2.04v6.24h-1.93v-6c0-.71-.18-1.26-.55-1.66s-.88-.6-1.52-.6c-.43,0-.82.1-1.17.29-.35.19-.62.47-.82.83s-.3.81-.3,1.33Z"/>
        <path class="st3" d="M136.85,208.37l-2.95-9.83h2.04l1.08,4.07c.16.61.33,1.29.51,2.03.18.75.36,1.59.53,2.53h-.28c.17-.9.35-1.73.53-2.48s.35-1.44.52-2.08l1.08-4.07h1.93l1.06,4.07c.16.62.34,1.31.51,2.06s.35,1.58.52,2.5h-.29c.18-.91.35-1.74.53-2.49s.35-1.44.51-2.07l1.08-4.07h2.06l-2.96,9.83h-1.94l-1.21-4.23c-.12-.43-.24-.87-.36-1.34-.12-.46-.23-.94-.34-1.43s-.23-.97-.34-1.45h.4c-.11.47-.22.96-.34,1.45s-.23.97-.35,1.44-.24.92-.36,1.33l-1.21,4.23h-1.94Z"/>
        <path class="st3" d="M152.36,208.59c-.62,0-1.18-.12-1.69-.35-.5-.23-.9-.57-1.2-1.02s-.44-.99-.44-1.63c0-.56.11-1.01.32-1.37s.5-.64.87-.85.77-.37,1.22-.47.9-.18,1.37-.24c.58-.07,1.05-.13,1.42-.17.36-.04.63-.12.8-.22s.26-.27.26-.5v-.05c0-.37-.07-.68-.21-.93s-.35-.45-.63-.58c-.28-.14-.63-.21-1.04-.21s-.8.07-1.1.2c-.31.13-.56.3-.75.5s-.33.42-.43.64l-1.82-.47c.22-.59.54-1.06.96-1.42s.89-.62,1.43-.78,1.1-.25,1.67-.25c.4,0,.82.05,1.27.14s.86.26,1.26.51.71.59.96,1.04.37,1.03.37,1.74v6.52h-1.87v-1.34h-.1c-.13.25-.32.5-.57.74s-.57.44-.95.59c-.38.16-.84.23-1.38.23ZM152.79,207.03c.53,0,.98-.1,1.35-.31s.66-.48.86-.82.3-.7.3-1.08v-1.26c-.07.07-.2.13-.4.19s-.42.11-.67.15c-.25.04-.5.08-.73.11s-.43.05-.58.07c-.36.05-.7.13-1,.24s-.54.27-.72.47-.27.48-.27.82c0,.31.08.57.24.78s.38.37.65.47.59.16.96.16Z"/>
        <path class="st3" d="M163.96,208.57c-.93,0-1.73-.21-2.42-.63s-1.22-1.01-1.6-1.78-.57-1.65-.57-2.65.19-1.91.57-2.68c.38-.76.91-1.36,1.6-1.78s1.49-.63,2.42-.63c.51,0,.99.07,1.43.2.45.13.85.32,1.21.57s.67.55.91.91c.25.36.44.77.56,1.22l-1.84.44c-.06-.25-.16-.48-.3-.69s-.3-.39-.49-.54-.41-.27-.66-.35-.52-.12-.82-.12c-.59,0-1.08.16-1.47.47s-.68.73-.87,1.25-.29,1.1-.29,1.73.1,1.2.29,1.72c.19.52.48.93.87,1.24s.88.47,1.47.47c.3,0,.58-.04.83-.13.25-.08.48-.2.68-.36s.37-.34.5-.56c.13-.22.23-.46.29-.73l1.83.44c-.12.46-.3.88-.55,1.24-.25.37-.56.68-.92.94s-.77.45-1.22.59-.93.2-1.45.2Z"/>
        <path class="st3" d="M172.15,202.55v5.82h-1.93v-13.1h1.92v5.68h-.25c.29-.88.7-1.52,1.25-1.92s1.2-.61,1.98-.61c.67,0,1.25.14,1.75.42s.89.7,1.17,1.24.42,1.23.42,2.04v6.24h-1.93v-6c0-.71-.18-1.26-.55-1.66s-.88-.6-1.52-.6c-.43,0-.82.1-1.17.29-.35.19-.62.47-.82.83s-.3.81-.3,1.33Z"/>
        <path class="st3" d="M185.28,208.57c-.97,0-1.8-.21-2.5-.62s-1.24-1-1.62-1.76-.57-1.64-.57-2.66.19-1.9.56-2.66.9-1.37,1.58-1.8c.68-.43,1.48-.65,2.39-.65.56,0,1.1.09,1.63.28.52.18.99.47,1.41.87s.75.9.99,1.53c.24.62.36,1.38.36,2.27v.69h-7.83v-1.44h6.84l-.91.47c0-.6-.09-1.13-.28-1.6-.19-.46-.46-.82-.83-1.08s-.82-.39-1.38-.39-1.01.13-1.4.4-.68.61-.88,1.04c-.2.43-.3.9-.3,1.41v.98c0,.67.12,1.24.35,1.71.23.47.56.82.97,1.05.42.24.9.36,1.45.36.36,0,.69-.05.98-.15s.55-.26.76-.47c.21-.21.38-.46.49-.77l1.82.43c-.16.5-.42.95-.8,1.34s-.83.69-1.39.9c-.55.21-1.18.32-1.89.32Z"/>
        <path class="st3" d="M196.57,208.37v-13.1h4.69c1.01,0,1.85.19,2.52.56s1.18.88,1.51,1.52.5,1.36.5,2.17-.17,1.53-.51,2.18c-.34.64-.84,1.15-1.52,1.52-.67.37-1.52.56-2.53.56h-3.21v-1.7h3.01c.64,0,1.17-.11,1.56-.33s.69-.53.87-.91.28-.82.28-1.31-.09-.93-.28-1.31c-.18-.38-.48-.68-.88-.9s-.93-.33-1.58-.33h-2.46v11.38h-2Z"/>
        <path class="st3" d="M210.64,208.59c-.62,0-1.18-.12-1.69-.35-.5-.23-.9-.57-1.2-1.02s-.44-.99-.44-1.63c0-.56.11-1.01.32-1.37s.5-.64.87-.85.77-.37,1.22-.47.9-.18,1.37-.24c.58-.07,1.05-.13,1.42-.17.36-.04.63-.12.8-.22s.26-.27.26-.5v-.05c0-.37-.07-.68-.21-.93s-.35-.45-.63-.58c-.28-.14-.63-.21-1.04-.21s-.8.07-1.1.2c-.31.13-.56.3-.75.5s-.33.42-.43.64l-1.82-.47c.22-.59.54-1.06.96-1.42s.89-.62,1.43-.78,1.1-.25,1.67-.25c.4,0,.82.05,1.27.14s.86.26,1.26.51.71.59.96,1.04.37,1.03.37,1.74v6.52h-1.87v-1.34h-.1c-.13.25-.32.5-.57.74s-.57.44-.95.59c-.38.16-.84.23-1.38.23ZM211.07,207.03c.53,0,.98-.1,1.35-.31s.66-.48.86-.82.3-.7.3-1.08v-1.26c-.07.07-.2.13-.4.19s-.42.11-.67.15c-.25.04-.5.08-.73.11s-.43.05-.58.07c-.36.05-.7.13-1,.24s-.54.27-.72.47-.27.48-.27.82c0,.31.08.57.24.78s.38.37.65.47.59.16.96.16Z"/>
        <path class="st3" d="M221.63,208.57c-.71,0-1.34-.1-1.89-.31s-1.01-.51-1.36-.91c-.35-.4-.59-.89-.71-1.47l1.82-.38c.13.51.39.89.76,1.13s.84.37,1.41.37c.62,0,1.12-.13,1.49-.39.37-.26.55-.57.55-.94,0-.32-.11-.58-.34-.78s-.57-.36-1.04-.46l-1.65-.38c-.91-.21-1.59-.53-2.04-.98s-.67-1.03-.67-1.73c0-.59.16-1.1.49-1.54s.78-.78,1.34-1.02,1.22-.37,1.97-.37,1.32.1,1.82.31.91.49,1.23.86.54.8.67,1.28l-1.73.38c-.12-.35-.34-.65-.64-.91-.3-.26-.75-.39-1.33-.39-.53,0-.98.12-1.34.36s-.54.54-.54.91c0,.33.12.59.36.8.24.2.63.36,1.16.49l1.58.35c.91.21,1.58.53,2.02.97s.66,1,.66,1.69c0,.6-.17,1.13-.51,1.59s-.82.82-1.42,1.08c-.61.26-1.31.39-2.11.39Z"/>
        <path class="st3" d="M231.33,208.57c-.71,0-1.34-.1-1.89-.31s-1.01-.51-1.36-.91c-.35-.4-.59-.89-.71-1.47l1.82-.38c.13.51.39.89.76,1.13s.84.37,1.41.37c.62,0,1.12-.13,1.49-.39.37-.26.55-.57.55-.94,0-.32-.11-.58-.34-.78s-.57-.36-1.04-.46l-1.65-.38c-.91-.21-1.59-.53-2.04-.98s-.67-1.03-.67-1.73c0-.59.16-1.1.49-1.54s.78-.78,1.34-1.02,1.22-.37,1.97-.37,1.32.1,1.82.31.91.49,1.23.86.54.8.67,1.28l-1.73.38c-.12-.35-.34-.65-.64-.91-.3-.26-.75-.39-1.33-.39-.53,0-.98.12-1.34.36s-.54.54-.54.91c0,.33.12.59.36.8.24.2.63.36,1.16.49l1.58.35c.91.21,1.58.53,2.02.97s.66,1,.66,1.69c0,.6-.17,1.13-.51,1.59s-.82.82-1.42,1.08c-.61.26-1.31.39-2.11.39Z"/>
        <path class="st3" d="M239.65,208.37l-2.95-9.83h2.04l1.08,4.07c.16.61.33,1.29.51,2.03.18.75.36,1.59.53,2.53h-.28c.17-.9.35-1.73.53-2.48s.35-1.44.52-2.08l1.08-4.07h1.93l1.06,4.07c.16.62.34,1.31.51,2.06s.35,1.58.52,2.5h-.29c.18-.91.35-1.74.53-2.49s.35-1.44.51-2.07l1.08-4.07h2.06l-2.96,9.83h-1.94l-1.21-4.23c-.12-.43-.24-.87-.36-1.34-.12-.46-.23-.94-.34-1.43s-.23-.97-.34-1.45h.4c-.11.47-.22.96-.34,1.45s-.23.97-.35,1.44-.24.92-.36,1.33l-1.21,4.23h-1.94Z"/>
        <path class="st3" d="M256.25,208.57c-.92,0-1.72-.21-2.41-.63s-1.22-1.01-1.6-1.78-.57-1.65-.57-2.65.19-1.91.57-2.68c.38-.76.92-1.36,1.6-1.78s1.49-.63,2.41-.63,1.73.21,2.42.63,1.22,1.02,1.6,1.78c.38.77.57,1.66.57,2.68s-.19,1.89-.57,2.65-.92,1.35-1.6,1.78-1.5.63-2.42.63ZM254.37,197.02c-.31,0-.58-.11-.8-.33-.22-.22-.33-.49-.33-.8s.11-.57.33-.79.49-.33.8-.33.58.11.8.33.33.48.33.78-.11.58-.33.8-.48.33-.8.33ZM256.25,206.93c.6,0,1.09-.16,1.48-.47s.68-.73.87-1.25c.19-.52.29-1.09.29-1.71s-.1-1.2-.29-1.73c-.19-.52-.48-.94-.87-1.26s-.88-.47-1.48-.47-1.08.16-1.47.47-.68.73-.87,1.25-.29,1.1-.29,1.73.1,1.19.29,1.71c.19.52.48.93.87,1.25s.88.47,1.47.47ZM258.13,197.02c-.31,0-.58-.11-.8-.33-.22-.22-.33-.49-.33-.8s.11-.57.33-.79.49-.33.8-.33.58.11.8.33.33.48.33.78-.11.58-.33.8-.49.33-.8.33Z"/>
        <path class="st3" d="M262.99,208.37v-9.83h1.87v1.58h.11c.18-.54.5-.96.95-1.27s.96-.46,1.54-.46c.12,0,.26,0,.42.01.16,0,.29.02.4.04v1.85c-.07-.02-.21-.05-.4-.07s-.4-.04-.61-.04c-.45,0-.85.09-1.2.28s-.64.45-.83.78c-.2.33-.3.71-.3,1.15v5.97h-1.93Z"/>
        <path class="st3" d="M274.46,198.54v1.57h-5.33v-1.57h5.33ZM270.57,196.2h1.93v9.51c0,.39.08.68.25.87.17.19.44.28.82.28.1,0,.23-.01.4-.04s.3-.05.42-.07l.34,1.55c-.21.07-.42.12-.66.15-.23.03-.47.05-.69.05-.89,0-1.58-.23-2.07-.69-.49-.46-.74-1.11-.74-1.94v-9.67Z"/>
        <path class="st3" d="M280.45,208.57c-.97,0-1.8-.21-2.5-.62s-1.24-1-1.62-1.76-.57-1.64-.57-2.66.19-1.9.56-2.66.9-1.37,1.58-1.8c.68-.43,1.48-.65,2.39-.65.56,0,1.1.09,1.63.28.52.18.99.47,1.41.87s.75.9.99,1.53c.24.62.36,1.38.36,2.27v.69h-7.83v-1.44h6.84l-.91.47c0-.6-.09-1.13-.28-1.6-.19-.46-.46-.82-.83-1.08s-.82-.39-1.38-.39-1.01.13-1.4.4-.68.61-.88,1.04c-.2.43-.3.9-.3,1.41v.98c0,.67.12,1.24.35,1.71.23.47.56.82.97,1.05.42.24.9.36,1.45.36.36,0,.69-.05.98-.15s.55-.26.76-.47c.21-.21.38-.46.49-.77l1.82.43c-.16.5-.42.95-.8,1.34s-.83.69-1.39.9c-.55.21-1.18.32-1.89.32Z"/>
        <path class="st3" d="M286.79,208.37v-9.83h1.87v1.58h.11c.18-.54.5-.96.95-1.27s.96-.46,1.54-.46c.12,0,.26,0,.42.01.16,0,.29.02.4.04v1.85c-.07-.02-.21-.05-.4-.07s-.4-.04-.61-.04c-.45,0-.85.09-1.2.28s-.64.45-.83.78c-.2.33-.3.71-.3,1.15v5.97h-1.93Z"/>
      </g>
    </g>
    <g class="st12">
      <g>
        <path class="st3" d="M160.97,208v-13.1h4.69c1.01,0,1.85.19,2.52.56s1.18.88,1.51,1.52.5,1.36.5,2.17-.17,1.53-.51,2.18c-.34.64-.84,1.15-1.52,1.52-.67.37-1.52.56-2.53.56h-3.21v-1.7h3.01c.64,0,1.17-.11,1.56-.33s.69-.53.87-.91.28-.82.28-1.31-.09-.93-.28-1.31c-.18-.38-.48-.68-.88-.9s-.93-.33-1.58-.33h-2.46v11.38h-2Z"/>
        <path class="st3" d="M174.31,202.19v5.82h-1.93v-13.1h1.92v5.68h-.25c.29-.88.7-1.52,1.25-1.92s1.2-.61,1.98-.61c.67,0,1.25.14,1.75.42s.89.7,1.17,1.24.42,1.23.42,2.04v6.24h-1.93v-6c0-.71-.18-1.26-.55-1.66s-.88-.6-1.52-.6c-.43,0-.82.1-1.17.29-.35.19-.62.47-.82.83s-.3.81-.3,1.33Z"/>
        <path class="st3" d="M184.18,196.68c-.33,0-.62-.11-.86-.34-.24-.22-.36-.49-.36-.8s.12-.59.36-.82.52-.33.86-.33.62.11.86.33.36.5.36.82-.12.59-.36.81-.53.33-.86.33ZM183.2,208v-9.83h1.93v9.83h-1.93Z"/>
        <path class="st3" d="M191.26,208.21c-.71,0-1.34-.1-1.89-.31s-1.01-.51-1.36-.91c-.35-.4-.59-.89-.71-1.47l1.82-.38c.13.51.39.89.76,1.13s.84.37,1.41.37c.62,0,1.12-.13,1.49-.39.37-.26.55-.57.55-.94,0-.32-.11-.58-.34-.78s-.57-.36-1.04-.46l-1.65-.38c-.91-.21-1.59-.53-2.04-.98s-.67-1.03-.67-1.73c0-.59.16-1.1.49-1.54s.78-.78,1.34-1.02,1.22-.37,1.97-.37,1.32.1,1.82.31.91.49,1.23.86.54.8.67,1.28l-1.73.38c-.12-.35-.34-.65-.64-.91-.3-.26-.75-.39-1.33-.39-.53,0-.98.12-1.34.36s-.54.54-.54.91c0,.33.12.59.36.8.24.2.63.36,1.16.49l1.58.35c.91.21,1.58.53,2.02.97s.66,1,.66,1.69c0,.6-.17,1.13-.51,1.59s-.82.82-1.42,1.08c-.61.26-1.31.39-2.11.39Z"/>
        <path class="st3" d="M199.37,202.19v5.82h-1.93v-13.1h1.92v5.68h-.25c.29-.88.7-1.52,1.25-1.92s1.2-.61,1.98-.61c.67,0,1.25.14,1.75.42s.89.7,1.17,1.24.42,1.23.42,2.04v6.24h-1.93v-6c0-.71-.18-1.26-.55-1.66s-.88-.6-1.52-.6c-.43,0-.82.1-1.17.29-.35.19-.62.47-.82.83s-.3.81-.3,1.33Z"/>
        <path class="st3" d="M209.24,196.68c-.33,0-.62-.11-.86-.34-.24-.22-.36-.49-.36-.8s.12-.59.36-.82.52-.33.86-.33.62.11.86.33.36.5.36.82-.12.59-.36.81-.53.33-.86.33ZM208.26,208v-9.83h1.93v9.83h-1.93Z"/>
        <path class="st3" d="M214.73,202.19v5.82h-1.93v-9.83h1.85l.02,2.41h-.2c.29-.88.7-1.52,1.25-1.92s1.2-.61,1.98-.61c.67,0,1.25.14,1.75.42s.89.7,1.17,1.24.42,1.23.42,2.04v6.24h-1.93v-6c0-.71-.18-1.26-.55-1.66s-.88-.6-1.52-.6c-.43,0-.82.1-1.17.29-.35.19-.62.47-.82.83s-.3.81-.3,1.33Z"/>
        <path class="st3" d="M227.73,211.89c-.76,0-1.41-.1-1.97-.29s-1.02-.45-1.38-.77-.63-.68-.82-1.07l1.62-.76c.12.19.27.38.47.59.2.21.46.38.8.53s.76.22,1.28.22c.75,0,1.36-.18,1.82-.53s.7-.91.7-1.67v-1.92h-.17c-.12.22-.28.45-.49.7s-.5.47-.87.66c-.37.18-.86.28-1.45.28-.77,0-1.47-.18-2.09-.54s-1.11-.9-1.47-1.62-.54-1.59-.54-2.64.18-1.94.54-2.68c.36-.75.85-1.32,1.48-1.72s1.33-.6,2.11-.6c.6,0,1.09.1,1.47.3s.67.44.89.71c.21.27.38.51.49.72h.14v-1.6h1.89v9.97c0,.86-.19,1.57-.58,2.12-.39.55-.92.96-1.59,1.23s-1.43.4-2.27.4ZM227.72,206.25c.55,0,1.02-.13,1.39-.38.38-.25.66-.62.86-1.11.19-.48.29-1.06.29-1.73s-.1-1.24-.29-1.74-.48-.89-.86-1.17-.84-.42-1.39-.42-1.04.15-1.42.44-.67.69-.86,1.2c-.19.5-.29,1.06-.29,1.69s.1,1.2.29,1.68c.19.48.48.86.87,1.13s.86.4,1.42.4Z"/>
      </g>
    </g>
    <g class="st12">
      <g>
        <path class="st3" d="M161.2,208v-13.1h2.95l2.86,7.51c.08.22.17.5.28.84s.21.71.32,1.11.22.79.32,1.18.19.74.26,1.05h-.42c.08-.29.16-.63.26-1.02.1-.38.21-.77.32-1.17s.22-.77.33-1.12.2-.64.28-.86l2.81-7.51h2.97v13.1h-2v-7.05c0-.27,0-.59,0-.97s.01-.77.02-1.19c0-.42.02-.84.03-1.27s.02-.84.02-1.23h.15c-.12.43-.24.87-.38,1.32-.14.46-.27.89-.4,1.31s-.26.81-.38,1.16-.22.64-.3.87l-2.68,7.05h-1.71l-2.72-7.05c-.09-.22-.19-.51-.3-.85-.11-.34-.24-.72-.37-1.14s-.27-.86-.41-1.31c-.14-.45-.28-.91-.42-1.36h.18c.01.36.02.75.03,1.16,0,.42.02.84.03,1.27s.02.83.03,1.22.01.72.01,1.01v7.05h-1.95Z"/>
        <path class="st3" d="M180.23,208.22c-.62,0-1.18-.12-1.69-.35-.5-.23-.9-.57-1.2-1.02s-.44-.99-.44-1.63c0-.56.11-1.01.32-1.37s.5-.64.87-.85.77-.37,1.22-.47.9-.18,1.37-.24c.58-.07,1.05-.13,1.42-.17.36-.04.63-.12.8-.22s.26-.27.26-.5v-.05c0-.37-.07-.68-.21-.93s-.35-.45-.63-.58c-.28-.14-.63-.21-1.04-.21s-.8.07-1.1.2c-.31.13-.56.3-.75.5s-.33.42-.43.64l-1.82-.47c.22-.59.54-1.06.96-1.42s.89-.62,1.43-.78,1.1-.25,1.67-.25c.4,0,.82.05,1.27.14s.86.26,1.26.51.71.59.96,1.04.37,1.03.37,1.74v6.52h-1.87v-1.34h-.1c-.13.25-.32.5-.57.74s-.57.44-.95.59c-.38.16-.84.23-1.38.23ZM180.66,206.67c.53,0,.98-.1,1.35-.31s.66-.48.86-.82.3-.7.3-1.08v-1.26c-.07.07-.2.13-.4.19s-.42.11-.67.15c-.25.04-.5.08-.73.11s-.43.05-.58.07c-.36.05-.7.13-1,.24s-.54.27-.72.47-.27.48-.27.82c0,.31.08.57.24.78s.38.37.65.47.59.16.96.16Z"/>
        <path class="st3" d="M189.63,194.91v13.1h-1.93v-13.1h1.93Z"/>
        <path class="st3" d="M194.39,208l-2.95-9.83h2.04l1.08,4.07c.16.61.33,1.29.51,2.03.18.75.36,1.59.53,2.53h-.28c.17-.9.35-1.73.53-2.48s.35-1.44.52-2.08l1.08-4.07h1.93l1.06,4.07c.16.62.34,1.31.51,2.06s.35,1.58.52,2.5h-.29c.18-.91.35-1.74.53-2.49s.35-1.44.51-2.07l1.08-4.07h2.06l-2.96,9.83h-1.94l-1.21-4.23c-.12-.43-.24-.87-.36-1.34-.12-.46-.23-.94-.34-1.43s-.23-.97-.34-1.45h.4c-.11.47-.22.96-.34,1.45s-.23.97-.35,1.44-.24.92-.36,1.33l-1.21,4.23h-1.94Z"/>
        <path class="st3" d="M209.89,208.22c-.62,0-1.18-.12-1.69-.35-.5-.23-.9-.57-1.2-1.02s-.44-.99-.44-1.63c0-.56.11-1.01.32-1.37s.5-.64.87-.85.77-.37,1.22-.47.9-.18,1.37-.24c.58-.07,1.05-.13,1.42-.17.36-.04.63-.12.8-.22s.26-.27.26-.5v-.05c0-.37-.07-.68-.21-.93s-.35-.45-.63-.58c-.28-.14-.63-.21-1.04-.21s-.8.07-1.1.2c-.31.13-.56.3-.75.5s-.33.42-.43.64l-1.82-.47c.22-.59.54-1.06.96-1.42s.89-.62,1.43-.78,1.1-.25,1.67-.25c.4,0,.82.05,1.27.14s.86.26,1.26.51.71.59.96,1.04.37,1.03.37,1.74v6.52h-1.87v-1.34h-.1c-.13.25-.32.5-.57.74s-.57.44-.95.59c-.38.16-.84.23-1.38.23ZM210.32,206.67c.53,0,.98-.1,1.35-.31s.66-.48.86-.82.3-.7.3-1.08v-1.26c-.07.07-.2.13-.4.19s-.42.11-.67.15c-.25.04-.5.08-.73.11s-.43.05-.58.07c-.36.05-.7.13-1,.24s-.54.27-.72.47-.27.48-.27.82c0,.31.08.57.24.78s.38.37.65.47.59.16.96.16Z"/>
        <path class="st3" d="M217.36,208v-9.83h1.87v1.58h.11c.18-.54.5-.96.95-1.27s.96-.46,1.54-.46c.12,0,.26,0,.42.01.16,0,.29.02.4.04v1.85c-.07-.02-.21-.05-.4-.07s-.4-.04-.61-.04c-.45,0-.85.09-1.2.28s-.64.45-.83.78c-.2.33-.3.71-.3,1.15v5.97h-1.93Z"/>
        <path class="st3" d="M228.22,208.21c-.97,0-1.8-.21-2.5-.62s-1.24-1-1.62-1.76-.57-1.64-.57-2.66.19-1.9.56-2.66.9-1.37,1.58-1.8c.68-.43,1.48-.65,2.39-.65.56,0,1.1.09,1.63.28.52.18.99.47,1.41.87s.75.9.99,1.53c.24.62.36,1.38.36,2.27v.69h-7.83v-1.44h6.84l-.91.47c0-.6-.09-1.13-.28-1.6-.19-.46-.46-.82-.83-1.08s-.82-.39-1.38-.39-1.01.13-1.4.4-.68.61-.88,1.04c-.2.43-.3.9-.3,1.41v.98c0,.67.12,1.24.35,1.71.23.47.56.82.97,1.05.42.24.9.36,1.45.36.36,0,.69-.05.98-.15s.55-.26.76-.47c.21-.21.38-.46.49-.77l1.82.43c-.16.5-.42.95-.8,1.34s-.83.69-1.39.9c-.55.21-1.18.32-1.89.32Z"/>
      </g>
    </g>
    <g class="st12">
      <g>
        <path class="st3" d="M152.04,196.34v13.1h-2v-13.1h2ZM154.29,209.43h-3.23v-1.76h3.13c.99,0,1.81-.18,2.47-.55s1.15-.91,1.48-1.63.49-1.59.49-2.62-.16-1.89-.49-2.6-.81-1.25-1.45-1.62-1.44-.55-2.4-.55h-3.3v-1.76h3.44c1.29,0,2.39.26,3.31.78s1.63,1.27,2.12,2.25c.49.98.74,2.14.74,3.5s-.25,2.54-.74,3.52-1.21,1.73-2.15,2.26-2.08.79-3.41.79Z"/>
        <path class="st3" d="M165.63,209.65c-.62,0-1.18-.12-1.69-.35-.5-.23-.9-.57-1.2-1.02s-.44-.99-.44-1.63c0-.56.11-1.01.32-1.37s.5-.64.87-.85.77-.37,1.22-.47.9-.18,1.37-.24c.58-.07,1.05-.13,1.42-.17.36-.04.63-.12.8-.22s.26-.27.26-.5v-.05c0-.37-.07-.68-.21-.93s-.35-.45-.63-.58c-.28-.14-.63-.21-1.04-.21s-.8.07-1.1.2c-.31.13-.56.3-.75.5s-.33.42-.43.64l-1.82-.47c.22-.59.54-1.06.96-1.42s.89-.62,1.43-.78,1.1-.25,1.67-.25c.4,0,.82.05,1.27.14s.86.26,1.26.51.71.59.96,1.04.37,1.03.37,1.74v6.52h-1.87v-1.34h-.1c-.13.25-.32.5-.57.74s-.57.44-.95.59c-.38.16-.84.23-1.38.23ZM166.06,208.1c.53,0,.98-.1,1.35-.31s.66-.48.86-.82.3-.7.3-1.08v-1.26c-.07.07-.2.13-.4.19s-.42.11-.67.15c-.25.04-.5.08-.73.11s-.43.05-.58.07c-.36.05-.7.13-1,.24s-.54.27-.72.47-.27.48-.27.82c0,.31.08.57.24.78s.38.37.65.47.59.16.96.16Z"/>
        <path class="st3" d="M177.3,199.61v1.57h-5.33v-1.57h5.33ZM173.41,197.27h1.93v9.51c0,.39.08.68.25.87.17.19.44.28.82.28.1,0,.23-.01.4-.04s.3-.05.42-.07l.34,1.55c-.21.07-.42.12-.66.15-.23.03-.47.05-.69.05-.89,0-1.58-.23-2.07-.69-.49-.46-.74-1.11-.74-1.94v-9.67Z"/>
        <path class="st3" d="M183.29,209.64c-.97,0-1.8-.21-2.5-.62s-1.24-1-1.62-1.76-.57-1.64-.57-2.66.19-1.9.56-2.66.9-1.37,1.58-1.8c.68-.43,1.48-.65,2.39-.65.56,0,1.1.09,1.63.28.52.18.99.47,1.41.87s.75.9.99,1.53c.24.62.36,1.38.36,2.27v.69h-7.83v-1.44h6.84l-.91.47c0-.6-.09-1.13-.28-1.6-.19-.46-.46-.82-.83-1.08s-.82-.39-1.38-.39-1.01.13-1.4.4-.68.61-.88,1.04c-.2.43-.3.9-.3,1.41v.98c0,.67.12,1.24.35,1.71.23.47.56.82.97,1.05.42.24.9.36,1.45.36.36,0,.69-.05.98-.15s.55-.26.76-.47c.21-.21.38-.46.49-.77l1.82.43c-.16.5-.42.95-.8,1.34s-.83.69-1.39.9c-.55.21-1.18.32-1.89.32Z"/>
        <path class="st3" d="M191.56,203.61v5.82h-1.93v-9.83h1.85l.02,2.41h-.2c.29-.88.7-1.52,1.25-1.92s1.2-.61,1.98-.61c.67,0,1.25.14,1.75.42s.89.7,1.17,1.24.42,1.23.42,2.04v6.24h-1.93v-6c0-.71-.18-1.26-.55-1.66s-.88-.6-1.52-.6c-.43,0-.82.1-1.17.29-.35.19-.62.47-.82.83s-.3.81-.3,1.33Z"/>
        <path class="st3" d="M202.39,196.34v13.1h-1.93v-13.1h1.93Z"/>
        <path class="st3" d="M209.23,209.64c-.97,0-1.8-.21-2.5-.62s-1.24-1-1.62-1.76-.57-1.64-.57-2.66.19-1.9.56-2.66.9-1.37,1.58-1.8c.68-.43,1.48-.65,2.39-.65.56,0,1.1.09,1.63.28.52.18.99.47,1.41.87s.75.9.99,1.53c.24.62.36,1.38.36,2.27v.69h-7.83v-1.44h6.84l-.91.47c0-.6-.09-1.13-.28-1.6-.19-.46-.46-.82-.83-1.08s-.82-.39-1.38-.39-1.01.13-1.4.4-.68.61-.88,1.04c-.2.43-.3.9-.3,1.41v.98c0,.67.12,1.24.35,1.71.23.47.56.82.97,1.05.42.24.9.36,1.45.36.36,0,.69-.05.98-.15s.55-.26.76-.47c.21-.21.38-.46.49-.77l1.82.43c-.16.5-.42.95-.8,1.34s-.83.69-1.39.9c-.55.21-1.18.32-1.89.32Z"/>
        <path class="st3" d="M219.69,209.64c-.93,0-1.73-.21-2.42-.63s-1.22-1.01-1.6-1.78-.57-1.65-.57-2.65.19-1.91.57-2.68c.38-.76.91-1.36,1.6-1.78s1.49-.63,2.42-.63c.51,0,.99.07,1.43.2.45.13.85.32,1.21.57s.67.55.91.91c.25.36.44.77.56,1.22l-1.84.44c-.06-.25-.16-.48-.3-.69s-.3-.39-.49-.54-.41-.27-.66-.35-.52-.12-.82-.12c-.59,0-1.08.16-1.47.47s-.68.73-.87,1.25-.29,1.1-.29,1.73.1,1.2.29,1.72c.19.52.48.93.87,1.24s.88.47,1.47.47c.3,0,.58-.04.83-.13.25-.08.48-.2.68-.36s.37-.34.5-.56c.13-.22.23-.46.29-.73l1.83.44c-.12.46-.3.88-.55,1.24-.25.37-.56.68-.92.94s-.77.45-1.22.59-.93.2-1.45.2Z"/>
        <path class="st3" d="M225.95,209.43v-13.1h1.93v13.1h-1.93ZM227.74,206.12v-2.36h.33l3.88-4.15h2.32l-4.44,4.75h-.33l-1.76,1.76ZM232.14,209.43l-3.49-4.64,1.34-1.37,4.54,6.01h-2.39Z"/>
        <path class="st3" d="M239.54,209.64c-.71,0-1.34-.1-1.89-.31s-1.01-.51-1.36-.91c-.35-.4-.59-.89-.71-1.47l1.82-.38c.13.51.39.89.76,1.13s.84.37,1.41.37c.62,0,1.12-.13,1.49-.39.37-.26.55-.57.55-.94,0-.32-.11-.58-.34-.78s-.57-.36-1.04-.46l-1.65-.38c-.91-.21-1.59-.53-2.04-.98s-.67-1.03-.67-1.73c0-.59.16-1.1.49-1.54s.78-.78,1.34-1.02,1.22-.37,1.97-.37,1.32.1,1.82.31.91.49,1.23.86.54.8.67,1.28l-1.73.38c-.12-.35-.34-.65-.64-.91-.3-.26-.75-.39-1.33-.39-.53,0-.98.12-1.34.36s-.54.54-.54.91c0,.33.12.59.36.8.24.2.63.36,1.16.49l1.58.35c.91.21,1.58.53,2.02.97s.66,1,.66,1.69c0,.6-.17,1.13-.51,1.59s-.82.82-1.42,1.08c-.61.26-1.31.39-2.11.39Z"/>
      </g>
    </g>
    <g class="st4">
      <g>
        <path class="st3" d="M142.97,208.58c-1.13,0-2.14-.27-3.04-.8-.89-.54-1.6-1.31-2.11-2.31s-.77-2.21-.77-3.6.26-2.6.77-3.61,1.22-1.78,2.11-2.32,1.91-.81,3.04-.81,2.14.27,3.03.81c.89.54,1.59,1.31,2.1,2.32.51,1,.77,2.21.77,3.61s-.26,2.59-.77,3.6c-.51,1-1.21,1.78-2.1,2.31-.89.54-1.9.8-3.03.8ZM142.97,206.75c.74,0,1.41-.19,2-.56.59-.37,1.05-.92,1.4-1.65.34-.73.51-1.62.51-2.68s-.17-1.96-.51-2.69c-.34-.73-.81-1.28-1.4-1.65-.59-.37-1.26-.56-2-.56s-1.42.19-2.01.56-1.06.93-1.4,1.66c-.34.73-.51,1.62-.51,2.69s.17,1.95.51,2.67c.34.73.81,1.28,1.4,1.65s1.26.56,2.01.56Z"/>
        <path class="st3" d="M153.09,202.59v5.82h-1.93v-9.83h1.85l.02,2.41h-.2c.29-.88.7-1.52,1.25-1.92s1.2-.61,1.98-.61c.67,0,1.25.14,1.75.42s.89.7,1.17,1.24.42,1.23.42,2.04v6.24h-1.93v-6c0-.71-.18-1.26-.55-1.66s-.88-.6-1.52-.6c-.43,0-.82.1-1.17.29-.35.19-.62.47-.82.83s-.3.81-.3,1.33Z"/>
        <path class="st3" d="M163.92,195.31v13.1h-1.93v-13.1h1.93Z"/>
        <path class="st3" d="M167.5,197.08c-.33,0-.62-.11-.86-.34-.24-.22-.36-.49-.36-.8s.12-.59.36-.82c.24-.22.52-.33.86-.33s.62.11.86.33.36.5.36.82-.12.59-.36.81-.53.33-.86.33ZM166.52,208.41v-9.83h1.93v9.83h-1.93Z"/>
        <path class="st3" d="M172.99,202.59v5.82h-1.93v-9.83h1.85l.02,2.41h-.2c.29-.88.7-1.52,1.25-1.92s1.2-.61,1.98-.61c.67,0,1.25.14,1.75.42s.89.7,1.17,1.24.42,1.23.42,2.04v6.24h-1.93v-6c0-.71-.18-1.26-.55-1.66s-.88-.6-1.52-.6c-.43,0-.82.1-1.17.29-.35.19-.62.47-.82.83s-.3.81-.3,1.33Z"/>
        <path class="st3" d="M186.12,208.61c-.97,0-1.8-.21-2.5-.62s-1.24-1-1.62-1.76c-.38-.76-.57-1.64-.57-2.66s.19-1.9.56-2.66c.37-.77.9-1.37,1.58-1.8.68-.43,1.48-.65,2.39-.65.56,0,1.1.09,1.63.28.52.18.99.47,1.41.87s.75.9.99,1.53c.24.62.37,1.38.37,2.27v.69h-7.83v-1.44h6.84l-.91.47c0-.6-.09-1.13-.28-1.6-.19-.46-.46-.82-.83-1.08-.37-.26-.83-.39-1.38-.39s-1.01.13-1.4.4-.68.61-.88,1.04c-.2.43-.3.9-.3,1.41v.98c0,.67.12,1.24.35,1.71.23.47.56.82.97,1.05.42.24.9.36,1.45.36.36,0,.69-.05.98-.15s.55-.26.76-.47c.21-.21.38-.46.49-.77l1.82.43c-.16.5-.42.95-.8,1.34s-.83.69-1.39.9c-.55.21-1.18.32-1.88.32Z"/>
        <path class="st3" d="M198.23,202.05v1.67h-5.82v-1.67h5.82Z"/>
        <path class="st3" d="M200.93,208.41v-13.1h4.83c.93,0,1.7.15,2.31.46s1.06.72,1.36,1.23c.3.52.45,1.1.45,1.75,0,.54-.1,1-.3,1.38s-.47.67-.8.9c-.34.23-.71.39-1.11.5v.13c.44.02.87.16,1.28.42.42.26.76.63,1.03,1.1.27.47.41,1.04.41,1.72s-.16,1.26-.47,1.79c-.31.53-.8.96-1.45,1.27s-1.49.47-2.5.47h-5.04ZM202.93,200.98h2.63c.44,0,.84-.08,1.2-.25s.64-.41.84-.72.31-.67.31-1.09c0-.54-.19-.99-.56-1.35-.38-.36-.95-.54-1.73-.54h-2.68v3.96ZM202.93,206.68h2.83c.94,0,1.61-.18,2.02-.54s.62-.81.62-1.35c0-.42-.1-.8-.31-1.14-.21-.34-.5-.61-.88-.81-.38-.2-.83-.3-1.36-.3h-2.91v4.16Z"/>
        <path class="st3" d="M216.84,208.61c-.97,0-1.8-.21-2.5-.62s-1.24-1-1.62-1.76c-.38-.76-.57-1.64-.57-2.66s.19-1.9.56-2.66c.37-.77.9-1.37,1.58-1.8.68-.43,1.48-.65,2.39-.65.56,0,1.1.09,1.63.28.52.18.99.47,1.41.87s.75.9.99,1.53c.24.62.37,1.38.37,2.27v.69h-7.83v-1.44h6.84l-.91.47c0-.6-.09-1.13-.28-1.6-.19-.46-.46-.82-.83-1.08-.37-.26-.83-.39-1.38-.39s-1.01.13-1.4.4-.68.61-.88,1.04c-.2.43-.3.9-.3,1.41v.98c0,.67.12,1.24.35,1.71.23.47.56.82.97,1.05.42.24.9.36,1.45.36.36,0,.69-.05.98-.15s.55-.26.76-.47c.21-.21.38-.46.49-.77l1.82.43c-.16.5-.42.95-.8,1.34s-.83.69-1.39.9c-.55.21-1.18.32-1.88.32Z"/>
        <path class="st3" d="M227.38,198.58v1.57h-5.33v-1.57h5.33ZM223.48,196.24h1.93v9.51c0,.39.08.68.25.87.17.19.44.28.82.28.1,0,.23-.01.4-.04s.3-.05.42-.07l.34,1.55c-.21.07-.42.12-.66.15-.23.03-.47.05-.69.05-.89,0-1.58-.23-2.07-.69-.49-.46-.74-1.11-.74-1.94v-9.67Z"/>
        <path class="st3" d="M229.3,208.41v-9.83h1.87v1.58h.11c.18-.54.5-.96.95-1.27s.96-.46,1.54-.46c.12,0,.26,0,.42.01.16,0,.29.02.4.04v1.85c-.07-.02-.21-.05-.4-.07s-.4-.04-.61-.04c-.45,0-.85.09-1.2.28s-.64.45-.83.78c-.2.33-.3.71-.3,1.15v5.97h-1.93Z"/>
        <path class="st3" d="M239.61,208.53c-.67,0-1.25-.14-1.76-.42s-.9-.7-1.17-1.25c-.28-.55-.42-1.23-.42-2.04v-6.24h1.93v6c0,.71.19,1.26.56,1.66.37.4.88.6,1.52.6.44,0,.83-.09,1.17-.29.34-.19.61-.47.81-.84.2-.37.3-.81.3-1.32v-5.82h1.93v9.83h-1.85v-2.41s.18,0,.18,0c-.29.89-.71,1.54-1.26,1.93s-1.2.6-1.95.6Z"/>
        <path class="st3" d="M251.19,212.29c-.76,0-1.41-.1-1.97-.29s-1.01-.45-1.38-.77c-.36-.32-.63-.68-.82-1.07l1.62-.76c.12.19.27.38.47.59.2.21.46.38.8.53s.76.22,1.28.22c.75,0,1.36-.18,1.82-.53.47-.35.7-.91.7-1.67v-1.92h-.17c-.12.22-.28.45-.49.7-.21.25-.5.47-.87.66-.37.18-.86.28-1.45.28-.77,0-1.47-.18-2.09-.54-.62-.36-1.11-.9-1.47-1.62s-.54-1.59-.54-2.64.18-1.94.54-2.68c.36-.75.85-1.32,1.48-1.72.62-.4,1.33-.6,2.11-.6.6,0,1.09.1,1.47.3.38.2.67.44.89.71.21.27.38.51.49.72h.14v-1.6h1.89v9.97c0,.86-.2,1.57-.58,2.12-.39.55-.92.96-1.59,1.23-.67.26-1.43.4-2.27.4ZM251.19,206.65c.55,0,1.02-.13,1.39-.38.38-.25.66-.62.86-1.11.19-.48.29-1.06.29-1.73s-.1-1.24-.29-1.74-.48-.89-.86-1.17c-.38-.28-.84-.42-1.39-.42s-1.04.15-1.42.44-.67.69-.86,1.2c-.19.5-.29,1.06-.29,1.69s.1,1.2.29,1.68c.19.48.48.86.87,1.13s.86.4,1.42.4Z"/>
      </g>
    </g>
  </g>
  <g id="Phishing" class="st13">
    <circle class="st0" cx="204" cy="89" r="55"/>
    <polyline class="st8" points="234 112 241.02 112 244 112 244 163 143 163 143 150"/>
    <g>
      <rect class="st11" x="206" y="80" width="2" height="2"/>
      <rect class="st11" x="206" y="84" width="2" height="15"/>
      <path class="st11" d="M206,78h2v-7.35c3.66-.54,6.39-3.96,5.78-7.88-.43-2.79-2.62-5.09-5.39-5.64-4.39-.86-8.25,2.49-8.25,6.73,0,3.44,2.55,6.3,5.86,6.78v7.35ZM202.59,63.82c0-2.68,2.18-4.86,4.86-4.86s4.87,2.18,4.87,4.86-2.18,4.86-4.87,4.86-4.86-2.18-4.86-4.86Z"/>
    </g>
    <rect class="st8" x="133" y="99" width="101" height="51"/>
    <path class="st7" d="M194.28,113.75c-6.23,0-11.28-5.05-11.28-11.28v-15.51s0-.84,0-.84v-4.38s5.94,5.47,5.94,5.47"/>
    <line class="st9" x1="168" y1="111" x2="144" y2="111"/>
    <line class="st10" x1="160" y1="117" x2="144" y2="117"/>
    <line class="st8" x1="234.16" y1="150.79" x2="243.79" y2="111.34"/>
  </g>
  <g id="Social_Engineering" class="st13">
    <circle class="st0" cx="211" cy="87" r="46"/>
    <g>
      <rect class="st2" x="211" y="91" width="2" height="3"/>
      <rect class="st2" x="211" y="76" width="2" height="13"/>
    </g>
    <g>
      <rect class="st14" x="169" y="69" width="2" height="9"/>
      <rect class="st14" x="169" y="80" width="2" height="2"/>
    </g>
    <g>
      <rect class="st14" x="226" y="119" width="2" height="9"/>
      <rect class="st14" x="226" y="131" width="2" height="2"/>
    </g>
    <path class="st8" d="M172.83,161.76h0c-13.6-7.98-24.8-19.1-32.87-32.64h0c-3.87-6.49-2.1-15.68,4.24-22.07l4.99-5.03c1.69-1.71,4.22-1.95,5.64-.54l6.96,6.91c1.42,1.41,1.2,3.93-.5,5.64l-7.68,9.64,24.84,23.95,9.39-7.3c1.7-1.68,4.19-1.9,5.6-.5l6.92,6.87c1.42,1.41,1.2,3.93-.5,5.64l-4.99,5.03c-6.34,6.38-15.52,8.21-22.04,4.39Z"/>
    <path class="st5" d="M194.71,70.75c8.05-9.68,22.43-11,32.11-2.95,9.68,8.05,11,22.43,2.95,32.11-6.86,8.25-18.3,10.43-27.53,5.92l-15.52,7.09,7.7-13.36c-6.63-8.28-6.76-20.35.29-28.82Z"/>
    <path class="st9" d="M156.29,75.85c0-7.7,6.24-13.93,13.93-13.93,7.7,0,13.93,6.24,13.93,13.93,0,6.55-4.52,12.05-10.62,13.54l-4.52,9.4-1.6-9.28c-6.35-1.3-11.13-6.92-11.13-13.65Z"/>
    <path class="st9" d="M221.65,113.23c7.22-2.66,15.23,1.03,17.9,8.25,2.66,7.22-1.03,15.23-8.25,17.9-6.15,2.27-12.87-.08-16.38-5.28l-10.38-.99,8.16-4.72c-.98-6.41,2.64-12.83,8.96-15.16Z"/>
  </g>
  <g id="Passwort" class="st13">
    <circle class="st0" cx="225" cy="114" r="55"/>
    <polyline class="st8" points="213 119 125 119 125 79 220 79 220 108"/>
    <line class="st8" x1="149" y1="93" x2="149" y2="106"/>
    <line class="st8" x1="142.9" y1="95.94" x2="154.16" y2="102.44"/>
    <line class="st8" x1="154.16" y1="95.94" x2="142.9" y2="102.44"/>
    <g>
      <line class="st9" x1="172" y1="93" x2="172" y2="106"/>
      <line class="st9" x1="166.6" y1="95.94" x2="177.85" y2="102.44"/>
      <line class="st9" x1="177.85" y1="95.94" x2="166.6" y2="102.44"/>
    </g>
    <g>
      <line class="st9" x1="197" y1="93" x2="197" y2="106"/>
      <line class="st9" x1="191.37" y1="95.94" x2="202.63" y2="102.44"/>
      <line class="st9" x1="202.63" y1="95.94" x2="191.37" y2="102.44"/>
    </g>
    <polygon class="st5" points="228.91 93.4 203.62 135 228.91 135 254.19 135 228.91 93.4"/>
    <g>
      <rect class="st2" x="228" y="109" width="2" height="14"/>
      <rect class="st2" x="228" y="125" width="2" height="2"/>
    </g>
  </g>
  <g id="Malware" class="st13">
    <circle class="st0" cx="165" cy="122" r="48"/>
    <path class="st6" d="M201.83,55.08"/>
    <path class="st6" d="M192.83,55.08"/>
    <path class="st9" d="M247,76v-5.2c0-2.1-1.7-3.8-3.8-3.8h-50.2"/>
    <polyline class="st8" points="177 139 254 139 254 76 199.65 76 190.77 63 148 63 148 110"/>
    <path class="st5" d="M176.11,119.01c2.25-2.27,2.24-5.93-.03-8.19s-5.93-2.24-8.19.03"/>
    <circle class="st5" cx="157" cy="130" r="22"/>
    <polyline class="st5" points="161 109 160.97 101.97 168.5 98.41"/>
    <polyline class="st5" points="178 126 185.46 125.97 188.97 118.43"/>
    <polyline class="st5" points="155 108 150.96 101 147 101.01"/>
    <polyline class="st5" points="179 132 186 135.78 186.01 140"/>
    <polyline class="st5" points="148 110.09 141.73 107.51 133.09 113.38"/>
    <polyline class="st5" points="177.11 138.2 179.75 145.25 173.93 153.94"/>
  </g>
  <g id="Datenlecks" class="st13">
    <g>
      <circle class="st0" cx="196.5" cy="116" r="55"/>
      <ellipse class="st9" cx="197" cy="60.5" rx="30.5" ry="5.5"/>
      <path class="st9" d="M227.28,89.65c0,3.1-13.56,5.61-30.28,5.61s-30.28-2.51-30.28-5.61"/>
      <path class="st9" d="M185.94,125.16c-11.25-.82-19.22-2.85-19.22-5.22"/>
      <path class="st9" d="M227.28,119.94c0,2.32-7.61,4.31-18.47,5.16"/>
      <line class="st9" x1="166.5" y1="61" x2="166.5" y2="121"/>
      <line class="st9" x1="227.5" y1="61" x2="227.5" y2="121"/>
      <g>
        <line class="st8" x1="190.27" y1="104.52" x2="203.73" y2="117.99"/>
        <line class="st8" x1="190.27" y1="117.99" x2="203.73" y2="104.52"/>
      </g>
      <path class="st5" d="M207.12,140.1c0-5.59-10.12-18.02-10.12-18.02,0,0-10.12,12.43-10.12,18.02s4.53,10.12,10.12,10.12,10.12-4.53,10.12-10.12Z"/>
    </g>
  </g>
  <g id="Fraud" class="st13">
    <circle class="st0" cx="240.5" cy="126.5" r="49.5"/>
    <line class="st9" x1="135" y1="72" x2="242" y2="72"/>
    <line class="st9" x1="135" y1="85" x2="242" y2="85"/>
    <rect class="st9" x="145.6" y="111" width="36.4" height="11"/>
    <path class="st8" d="M225,135h-85.38c-2.55,0-4.62-2.07-4.62-4.62v-64.75c0-2.55,2.07-4.62,4.62-4.62h96.75c2.55,0,4.62,2.07,4.62,4.62v55.38"/>
    <rect class="st5" x="225" y="121" width="33" height="23"/>
    <path class="st5" d="M252.21,110.37c0-6.35-5.85-11.33-12.46-9.84-4.61,1.04-7.76,5.35-7.76,10.08v9.39"/>
  </g>
  <g id="Siren" class="st13">
    <g>
      <path class="st5" d="M196.5,118.91h0c6.12,0,11.1,4.97,11.1,11.1v21.16h-22.19v-21.16c0-6.12,4.97-11.1,11.1-11.1Z"/>
      <circle class="st0" cx="196.5" cy="112.52" r="57.18"/>
      <line class="st9" x1="156.32" y1="151.16" x2="236.68" y2="151.16"/>
      <path class="st8" d="M196.5,77.94h0c22.34,0,40.47,18.13,40.47,40.47v61.25h-80.94v-61.25c0-22.34,18.13-40.47,40.47-40.47Z"/>
      <polyline class="st5" points="176.17 126.63 167.61 118.08 182.57 113.32 182.57 96.74 196.54 108.39 209.35 96.74 209.35 113.32 224.3 118.08 216.14 126.24"/>
    </g>
  </g>
  <g id="Eye">
    <g>
      <circle class="st0" cx="196.5" cy="133.8" r="52.41"/>
      <g>
        <path class="st8" d="M196.5,74.3c-34.77,0-63.69,35.14-63.69,35.14"/>
        <path class="st8" d="M260.19,109.45s-28.92-35.14-63.69-35.14"/>
        <path class="st8" d="M259.68,108.85l.51.6s-28.92,35.14-63.69,35.14"/>
        <path class="st8" d="M133.45,108.69l-.65.76s28.92,35.14,63.69,35.14"/>
      </g>
      <circle class="st9" cx="196.5" cy="109.45" r="24.36"/>
      <circle class="st8" cx="196.5" cy="110.44" r="13.68"/>
      <line class="st5" x1="214.91" y1="152.64" x2="220.12" y2="165.18"/>
      <line class="st5" x1="176.44" y1="152.64" x2="171.23" y2="165.18"/>
      <line class="st5" x1="195.76" y1="153.96" x2="195.76" y2="167.54"/>
    </g>
  </g>
</svg>