<?xml version="1.0" encoding="UTF-8"?>
<svg xmlns="http://www.w3.org/2000/svg" version="1.1" viewBox="0 0 393 235">
  <!-- Generator: Adobe Illustrator 29.2.1, SVG Export Plug-In . SVG Version: 2.1.0 Build 116)  -->
  <defs>
    <style>
      .st0 {
        fill: #d7c8c7;
      }

      .st1 {
        fill: #f73e3e;
      }

      .st2 {
        fill: #600606;
      }

      .st3 {
        stroke: #f73e3e;
      }

      .st3, .st4, .st5, .st6, .st7 {
        fill: none;
        stroke-miterlimit: 10;
        stroke-width: 2px;
      }

      .st8 {
        opacity: 0;
      }

      .st8, .st9 {
        fill: #d0342c;
        isolation: isolate;
      }

      .st10 {
        opacity: .2;
      }

      .st4 {
        stroke: #f6f6f6;
      }

      .st5 {
        stroke: #ff382e;
      }

      .st11 {
        fill: #ff382e;
      }

      .st6 {
        stroke: #600606;
      }

      .st7 {
        stroke: #c9a9a9;
      }

      .st12 {
        opacity: .3;
      }

      .st13 {
        display: none;
      }

      .st9 {
        opacity: 0;
      }

      .st14 {
        fill: #c9a9a9;
      }
    </style>
  </defs>
  <g id="Layer_1">
    <g id="Rahmen" class="st13">
      <path class="st0" d="M391.8,1.2v233.2H1.5V1.2h390.4M392.8.2H.4v235.2h392.4V.2h0Z"/>
    </g>
    <g id="Text" class="st13">
      <g class="st10">
        <g>
          <path class="st2" d="M106.4,208.6c-1,0-1.8-.2-2.6-.5s-1.3-.8-1.7-1.3-.6-1.3-.7-2.1h2c0,.5.2.9.5,1.2s.6.5,1,.7.9.2,1.4.2,1.1,0,1.5-.3.8-.4,1-.7.4-.7.4-1.1-.1-.7-.3-.9c-.2-.2-.5-.4-.9-.6s-.8-.3-1.3-.4l-1.5-.4c-1.1-.3-1.9-.7-2.5-1.3s-.9-1.3-.9-2.2.2-1.4.6-2,1-1,1.7-1.3,1.5-.5,2.4-.5,1.7.2,2.4.5,1.2.7,1.6,1.3.6,1.2.6,1.9h-1.9c0-.6-.3-1.1-.8-1.4s-1.1-.5-1.8-.5-1,0-1.4.2-.7.4-.9.7c-.2.3-.3.6-.3,1s.1.8.4,1,.6.5.9.6c.4.1.7.3,1.1.4l1.3.3c.4.1.8.2,1.3.4s.8.4,1.2.7.7.6.9,1.1.3.9.3,1.5-.2,1.4-.6,2-.9,1-1.7,1.4c-.7.3-1.6.5-2.6.5h0Z"/>
          <path class="st2" d="M117.6,208.6c-.9,0-1.7-.2-2.4-.6s-1.2-1-1.6-1.8-.6-1.6-.6-2.6.2-1.9.6-2.7c.4-.8.9-1.4,1.6-1.8s1.5-.6,2.4-.6,1,0,1.4.2c.4.1.8.3,1.2.6s.7.6.9.9c.2.4.4.8.6,1.2l-1.8.4c0-.2-.2-.5-.3-.7s-.3-.4-.5-.5-.4-.3-.7-.4-.5-.1-.8-.1c-.6,0-1.1.2-1.5.5s-.7.7-.9,1.2-.3,1.1-.3,1.7,0,1.2.3,1.7.5.9.9,1.2.9.5,1.5.5.6,0,.8-.1c.2,0,.5-.2.7-.4s.4-.3.5-.6.2-.5.3-.7l1.8.4c-.1.5-.3.9-.6,1.2-.2.4-.6.7-.9.9s-.8.4-1.2.6-.9.2-1.4.2h0Z"/>
          <path class="st2" d="M125.8,202.6v5.8h-1.9v-13.1h1.9v5.7h-.2c.3-.9.7-1.5,1.2-1.9s1.2-.6,2-.6,1.2.1,1.8.4.9.7,1.2,1.2.4,1.2.4,2v6.2h-1.9v-6c0-.7-.2-1.3-.6-1.7s-.9-.6-1.5-.6-.8.1-1.2.3c-.3.2-.6.5-.8.8s-.3.8-.3,1.3h0Z"/>
          <path class="st2" d="M136.9,208.4l-2.9-9.8h2l1.1,4.1c.2.6.3,1.3.5,2,.2.8.4,1.6.5,2.5h-.3c.2-.9.4-1.7.5-2.5s.4-1.4.5-2.1l1.1-4.1h1.9l1.1,4.1c.2.6.3,1.3.5,2.1s.4,1.6.5,2.5h-.3c.2-.9.4-1.7.5-2.5s.4-1.4.5-2.1l1.1-4.1h2.1l-3,9.8h-1.9l-1.2-4.2c-.1-.4-.2-.9-.4-1.3-.1-.5-.2-.9-.3-1.4s-.2-1-.3-1.4h.4c-.1.5-.2,1-.3,1.4s-.2,1-.4,1.4-.2.9-.4,1.3l-1.2,4.2h-2Z"/>
          <path class="st2" d="M152.4,208.6c-.6,0-1.2-.1-1.7-.4-.5-.2-.9-.6-1.2-1s-.4-1-.4-1.6.1-1,.3-1.4.5-.6.9-.9.8-.4,1.2-.5.9-.2,1.4-.2c.6,0,1.1-.1,1.4-.2.4,0,.6-.1.8-.2s.3-.3.3-.5h0c0-.4,0-.7-.2-1s-.4-.4-.6-.6c-.3-.1-.6-.2-1-.2s-.8,0-1.1.2c-.3.1-.6.3-.8.5s-.3.4-.4.6l-1.8-.5c.2-.6.5-1.1,1-1.4s.9-.6,1.4-.8,1.1-.2,1.7-.2.8,0,1.3.1.9.3,1.3.5.7.6,1,1,.4,1,.4,1.7v6.5h-1.9v-1.3h-.1c-.1.2-.3.5-.6.7s-.6.4-.9.6c-.4.2-.8.2-1.4.2h0ZM152.8,207c.5,0,1-.1,1.4-.3s.7-.5.9-.8.3-.7.3-1.1v-1.3c0,0-.2.1-.4.2s-.4.1-.7.1-.5,0-.7.1-.4,0-.6,0c-.4,0-.7.1-1,.2s-.5.3-.7.5-.3.5-.3.8,0,.6.2.8.4.4.6.5.6.2,1,.2h0Z"/>
          <path class="st2" d="M164,208.6c-.9,0-1.7-.2-2.4-.6s-1.2-1-1.6-1.8-.6-1.6-.6-2.6.2-1.9.6-2.7c.4-.8.9-1.4,1.6-1.8s1.5-.6,2.4-.6,1,0,1.4.2c.4.1.9.3,1.2.6s.7.6.9.9c.2.4.4.8.6,1.2l-1.8.4c0-.2-.2-.5-.3-.7s-.3-.4-.5-.5-.4-.3-.7-.4-.5-.1-.8-.1c-.6,0-1.1.2-1.5.5s-.7.7-.9,1.2-.3,1.1-.3,1.7.1,1.2.3,1.7c.2.5.5.9.9,1.2s.9.5,1.5.5.6,0,.8-.1c.2,0,.5-.2.7-.4s.4-.3.5-.6.2-.5.3-.7l1.8.4c-.1.5-.3.9-.6,1.2-.2.4-.6.7-.9.9s-.8.4-1.2.6-.9.2-1.4.2h0Z"/>
          <path class="st2" d="M172.1,202.6v5.8h-1.9v-13.1h1.9v5.7h-.2c.3-.9.7-1.5,1.2-1.9s1.2-.6,2-.6,1.2.1,1.8.4.9.7,1.2,1.2.4,1.2.4,2v6.2h-1.9v-6c0-.7-.2-1.3-.6-1.7s-.9-.6-1.5-.6-.8.1-1.2.3c-.4.2-.6.5-.8.8s-.3.8-.3,1.3h0Z"/>
          <path class="st2" d="M185.3,208.6c-1,0-1.8-.2-2.5-.6s-1.2-1-1.6-1.8-.6-1.6-.6-2.7.2-1.9.6-2.7.9-1.4,1.6-1.8c.7-.4,1.5-.6,2.4-.6s1.1,0,1.6.3c.5.2,1,.5,1.4.9s.8.9,1,1.5c.2.6.4,1.4.4,2.3v.7h-7.8v-1.4h6.8l-.9.5c0-.6,0-1.1-.3-1.6-.2-.5-.5-.8-.8-1.1s-.8-.4-1.4-.4-1,.1-1.4.4-.7.6-.9,1c-.2.4-.3.9-.3,1.4v1c0,.7.1,1.2.4,1.7.2.5.6.8,1,1.1.4.2.9.4,1.4.4s.7,0,1-.1.6-.3.8-.5c.2-.2.4-.5.5-.8l1.8.4c-.2.5-.4.9-.8,1.3s-.8.7-1.4.9c-.6.2-1.2.3-1.9.3h0Z"/>
          <path class="st2" d="M196.6,208.4v-13.1h4.7c1,0,1.9.2,2.5.6s1.2.9,1.5,1.5.5,1.4.5,2.2-.2,1.5-.5,2.2c-.3.6-.8,1.1-1.5,1.5-.7.4-1.5.6-2.5.6h-3.2v-1.7h3c.6,0,1.2-.1,1.6-.3s.7-.5.9-.9.3-.8.3-1.3,0-.9-.3-1.3c-.2-.4-.5-.7-.9-.9s-.9-.3-1.6-.3h-2.5v11.4h-2,0Z"/>
          <path class="st2" d="M210.6,208.6c-.6,0-1.2-.1-1.7-.4-.5-.2-.9-.6-1.2-1s-.4-1-.4-1.6.1-1,.3-1.4.5-.6.9-.9.8-.4,1.2-.5.9-.2,1.4-.2c.6,0,1.1-.1,1.4-.2.4,0,.6-.1.8-.2s.3-.3.3-.5h0c0-.4,0-.7-.2-1s-.4-.4-.6-.6c-.3-.1-.6-.2-1-.2s-.8,0-1.1.2c-.3.1-.6.3-.8.5s-.3.4-.4.6l-1.8-.5c.2-.6.5-1.1,1-1.4s.9-.6,1.4-.8,1.1-.2,1.7-.2.8,0,1.3.1.9.3,1.3.5.7.6,1,1,.4,1,.4,1.7v6.5h-1.9v-1.3h-.1c-.1.2-.3.5-.6.7s-.6.4-.9.6c-.4.2-.8.2-1.4.2h0ZM211.1,207c.5,0,1-.1,1.4-.3s.7-.5.9-.8.3-.7.3-1.1v-1.3c0,0-.2.1-.4.2s-.4.1-.7.1-.5,0-.7.1-.4,0-.6,0c-.4,0-.7.1-1,.2s-.5.3-.7.5-.3.5-.3.8,0,.6.2.8.4.4.6.5.6.2,1,.2h0Z"/>
          <path class="st2" d="M221.6,208.6c-.7,0-1.3-.1-1.9-.3s-1-.5-1.4-.9c-.4-.4-.6-.9-.7-1.5l1.8-.4c.1.5.4.9.8,1.1s.8.4,1.4.4,1.1-.1,1.5-.4c.4-.3.6-.6.6-.9s-.1-.6-.3-.8-.6-.4-1-.5l-1.6-.4c-.9-.2-1.6-.5-2-1s-.7-1-.7-1.7.2-1.1.5-1.5.8-.8,1.3-1,1.2-.4,2-.4,1.3.1,1.8.3.9.5,1.2.9.5.8.7,1.3l-1.7.4c-.1-.4-.3-.6-.6-.9-.3-.3-.8-.4-1.3-.4s-1,.1-1.3.4-.5.5-.5.9.1.6.4.8c.2.2.6.4,1.2.5l1.6.4c.9.2,1.6.5,2,1s.7,1,.7,1.7-.2,1.1-.5,1.6-.8.8-1.4,1.1c-.6.3-1.3.4-2.1.4h0Z"/>
          <path class="st2" d="M231.3,208.6c-.7,0-1.3-.1-1.9-.3s-1-.5-1.4-.9c-.4-.4-.6-.9-.7-1.5l1.8-.4c.1.5.4.9.8,1.1s.8.4,1.4.4,1.1-.1,1.5-.4c.4-.3.6-.6.6-.9s-.1-.6-.3-.8-.6-.4-1-.5l-1.6-.4c-.9-.2-1.6-.5-2-1s-.7-1-.7-1.7.2-1.1.5-1.5.8-.8,1.3-1,1.2-.4,2-.4,1.3.1,1.8.3.9.5,1.2.9.5.8.7,1.3l-1.7.4c-.1-.4-.3-.6-.6-.9-.3-.3-.8-.4-1.3-.4s-1,.1-1.3.4-.5.5-.5.9.1.6.4.8c.2.2.6.4,1.2.5l1.6.4c.9.2,1.6.5,2,1s.7,1,.7,1.7-.2,1.1-.5,1.6-.8.8-1.4,1.1c-.6.3-1.3.4-2.1.4h0Z"/>
          <path class="st2" d="M239.6,208.4l-2.9-9.8h2l1.1,4.1c.2.6.3,1.3.5,2,.2.8.4,1.6.5,2.5h-.3c.2-.9.4-1.7.5-2.5s.4-1.4.5-2.1l1.1-4.1h1.9l1.1,4.1c.2.6.3,1.3.5,2.1s.4,1.6.5,2.5h-.3c.2-.9.4-1.7.5-2.5s.4-1.4.5-2.1l1.1-4.1h2.1l-3,9.8h-1.9l-1.2-4.2c-.1-.4-.2-.9-.4-1.3-.1-.5-.2-.9-.3-1.4s-.2-1-.3-1.4h.4c-.1.5-.2,1-.3,1.4s-.2,1-.4,1.4-.2.9-.4,1.3l-1.2,4.2h-2Z"/>
          <path class="st2" d="M256.2,208.6c-.9,0-1.7-.2-2.4-.6s-1.2-1-1.6-1.8-.6-1.6-.6-2.6.2-1.9.6-2.7c.4-.8.9-1.4,1.6-1.8s1.5-.6,2.4-.6,1.7.2,2.4.6,1.2,1,1.6,1.8c.4.8.6,1.7.6,2.7s-.2,1.9-.6,2.6-.9,1.4-1.6,1.8-1.5.6-2.4.6ZM254.4,197c-.3,0-.6-.1-.8-.3s-.3-.5-.3-.8.1-.6.3-.8.5-.3.8-.3.6.1.8.3.3.5.3.8-.1.6-.3.8-.5.3-.8.3h0ZM256.2,206.9c.6,0,1.1-.2,1.5-.5s.7-.7.9-1.2.3-1.1.3-1.7-.1-1.2-.3-1.7c-.2-.5-.5-.9-.9-1.3s-.9-.5-1.5-.5-1.1.2-1.5.5-.7.7-.9,1.2-.3,1.1-.3,1.7.1,1.2.3,1.7c.2.5.5.9.9,1.2s.9.5,1.5.5h0ZM258.1,197c-.3,0-.6-.1-.8-.3s-.3-.5-.3-.8.1-.6.3-.8.5-.3.8-.3.6.1.8.3.3.5.3.8-.1.6-.3.8-.5.3-.8.3h0Z"/>
          <path class="st2" d="M263,208.4v-9.8h1.9v1.6h.1c.2-.5.5-1,1-1.3s1-.5,1.5-.5.3,0,.4,0c.2,0,.3,0,.4,0v1.9c0,0-.2,0-.4,0s-.4,0-.6,0c-.5,0-.9,0-1.2.3s-.6.4-.8.8c-.2.3-.3.7-.3,1.1v6h-2Z"/>
          <path class="st2" d="M274.5,198.5v1.6h-5.3v-1.6h5.3ZM270.6,196.2h1.9v9.5c0,.4,0,.7.2.9s.4.3.8.3.2,0,.4,0,.3,0,.4,0l.3,1.6c-.2,0-.4.1-.7.1-.2,0-.5,0-.7,0-.9,0-1.6-.2-2.1-.7-.5-.5-.7-1.1-.7-1.9v-9.7h0Z"/>
          <path class="st2" d="M280.5,208.6c-1,0-1.8-.2-2.5-.6s-1.2-1-1.6-1.8-.6-1.6-.6-2.7.2-1.9.6-2.7.9-1.4,1.6-1.8c.7-.4,1.5-.6,2.4-.6s1.1,0,1.6.3c.5.2,1,.5,1.4.9s.8.9,1,1.5c.2.6.4,1.4.4,2.3v.7h-7.8v-1.4h6.8l-.9.5c0-.6,0-1.1-.3-1.6-.2-.5-.5-.8-.8-1.1s-.8-.4-1.4-.4-1,.1-1.4.4-.7.6-.9,1-.3.9-.3,1.4v1c0,.7.1,1.2.4,1.7s.6.8,1,1.1c.4.2.9.4,1.5.4s.7,0,1-.1.5-.3.8-.5c.2-.2.4-.5.5-.8l1.8.4c-.2.5-.4.9-.8,1.3s-.8.7-1.4.9c-.5.2-1.2.3-1.9.3h0Z"/>
          <path class="st2" d="M286.8,208.4v-9.8h1.9v1.6h.1c.2-.5.5-1,1-1.3s1-.5,1.5-.5.3,0,.4,0c.2,0,.3,0,.4,0v1.9c0,0-.2,0-.4,0s-.4,0-.6,0c-.5,0-.9,0-1.2.3s-.6.4-.8.8c-.2.3-.3.7-.3,1.1v6h-2Z"/>
        </g>
      </g>
      <g class="st10">
        <g>
          <path class="st2" d="M161,208v-13.1h4.7c1,0,1.9.2,2.5.6s1.2.9,1.5,1.5.5,1.4.5,2.2-.2,1.5-.5,2.2c-.3.6-.8,1.1-1.5,1.5-.7.4-1.5.6-2.5.6h-3.2v-1.7h3c.6,0,1.2-.1,1.6-.3s.7-.5.9-.9.3-.8.3-1.3,0-.9-.3-1.3c-.2-.4-.5-.7-.9-.9s-.9-.3-1.6-.3h-2.5v11.4h-2,0Z"/>
          <path class="st2" d="M174.3,202.2v5.8h-1.9v-13.1h1.9v5.7h-.2c.3-.9.7-1.5,1.2-1.9s1.2-.6,2-.6,1.2.1,1.8.4.9.7,1.2,1.2.4,1.2.4,2v6.2h-1.9v-6c0-.7-.2-1.3-.6-1.7s-.9-.6-1.5-.6-.8.1-1.2.3c-.4.2-.6.5-.8.8s-.3.8-.3,1.3h0Z"/>
          <path class="st2" d="M184.2,196.7c-.3,0-.6-.1-.9-.3-.2-.2-.4-.5-.4-.8s.1-.6.4-.8.5-.3.9-.3.6.1.9.3.4.5.4.8-.1.6-.4.8-.5.3-.9.3ZM183.2,208v-9.8h1.9v9.8h-1.9Z"/>
          <path class="st2" d="M191.3,208.2c-.7,0-1.3-.1-1.9-.3s-1-.5-1.4-.9c-.4-.4-.6-.9-.7-1.5l1.8-.4c.1.5.4.9.8,1.1s.8.4,1.4.4,1.1-.1,1.5-.4c.4-.3.6-.6.6-.9s-.1-.6-.3-.8-.6-.4-1-.5l-1.6-.4c-.9-.2-1.6-.5-2-1s-.7-1-.7-1.7.2-1.1.5-1.5.8-.8,1.3-1,1.2-.4,2-.4,1.3.1,1.8.3.9.5,1.2.9.5.8.7,1.3l-1.7.4c-.1-.4-.3-.6-.6-.9-.3-.3-.8-.4-1.3-.4s-1,.1-1.3.4-.5.5-.5.9.1.6.4.8c.2.2.6.4,1.2.5l1.6.4c.9.2,1.6.5,2,1s.7,1,.7,1.7-.2,1.1-.5,1.6-.8.8-1.4,1.1c-.6.3-1.3.4-2.1.4h0Z"/>
          <path class="st2" d="M199.4,202.2v5.8h-1.9v-13.1h1.9v5.7h-.2c.3-.9.7-1.5,1.2-1.9s1.2-.6,2-.6,1.2.1,1.8.4.9.7,1.2,1.2.4,1.2.4,2v6.2h-1.9v-6c0-.7-.2-1.3-.6-1.7s-.9-.6-1.5-.6-.8.1-1.2.3c-.4.2-.6.5-.8.8s-.3.8-.3,1.3h0Z"/>
          <path class="st2" d="M209.2,196.7c-.3,0-.6-.1-.9-.3-.2-.2-.4-.5-.4-.8s.1-.6.4-.8.5-.3.9-.3.6.1.9.3.4.5.4.8-.1.6-.4.8-.5.3-.9.3ZM208.3,208v-9.8h1.9v9.8h-1.9Z"/>
          <path class="st2" d="M214.7,202.2v5.8h-1.9v-9.8h1.9v2.4s-.2,0-.2,0c.3-.9.7-1.5,1.2-1.9s1.2-.6,2-.6,1.2.1,1.8.4.9.7,1.2,1.2.4,1.2.4,2v6.2h-1.9v-6c0-.7-.2-1.3-.6-1.7s-.9-.6-1.5-.6-.8.1-1.2.3c-.4.2-.6.5-.8.8s-.3.8-.3,1.3h0Z"/>
          <path class="st2" d="M227.7,211.9c-.8,0-1.4-.1-2-.3s-1-.4-1.4-.8-.6-.7-.8-1.1l1.6-.8c.1.2.3.4.5.6.2.2.5.4.8.5s.8.2,1.3.2c.8,0,1.4-.2,1.8-.5s.7-.9.7-1.7v-1.9h-.2c-.1.2-.3.4-.5.7s-.5.5-.9.7c-.4.2-.9.3-1.4.3s-1.5-.2-2.1-.5-1.1-.9-1.5-1.6-.5-1.6-.5-2.6.2-1.9.5-2.7c.4-.8.9-1.3,1.5-1.7s1.3-.6,2.1-.6,1.1.1,1.5.3.7.4.9.7c.2.3.4.5.5.7h.1v-1.6h1.9v10c0,.9-.2,1.6-.6,2.1-.4.6-.9,1-1.6,1.2s-1.4.4-2.3.4h0ZM227.7,206.3c.6,0,1-.1,1.4-.4.4-.2.7-.6.9-1.1.2-.5.3-1.1.3-1.7s-.1-1.2-.3-1.7-.5-.9-.9-1.2-.8-.4-1.4-.4-1,.1-1.4.4-.7.7-.9,1.2c-.2.5-.3,1.1-.3,1.7s.1,1.2.3,1.7c.2.5.5.9.9,1.1s.9.4,1.4.4h0Z"/>
        </g>
      </g>
      <g class="st10">
        <g>
          <path class="st2" d="M161.2,208v-13.1h2.9l2.9,7.5c0,.2.2.5.3.8s.2.7.3,1.1.2.8.3,1.2.2.7.3,1.1h-.4c0-.3.2-.6.3-1,.1-.4.2-.8.3-1.2s.2-.8.3-1.1.2-.6.3-.9l2.8-7.5h3v13.1h-2v-8c0-.4,0-.8,0-1.2,0-.4,0-.8,0-1.3s0-.8,0-1.2h.1c-.1.4-.2.9-.4,1.3-.1.5-.3.9-.4,1.3s-.3.8-.4,1.2-.2.6-.3.9l-2.7,7.1h-1.7l-2.7-7.1c0-.2-.2-.5-.3-.9-.1-.3-.2-.7-.4-1.1s-.3-.9-.4-1.3-.3-.9-.4-1.4h.2c0,.4,0,.8,0,1.2,0,.4,0,.8,0,1.3s0,.8,0,1.2,0,.7,0,1v7.1h-2Z"/>
          <path class="st2" d="M180.2,208.2c-.6,0-1.2-.1-1.7-.4-.5-.2-.9-.6-1.2-1s-.4-1-.4-1.6.1-1,.3-1.4.5-.6.9-.9.8-.4,1.2-.5.9-.2,1.4-.2c.6,0,1.1-.1,1.4-.2.4,0,.6-.1.8-.2s.3-.3.3-.5h0c0-.4,0-.7-.2-1s-.4-.4-.6-.6c-.3-.1-.6-.2-1-.2s-.8,0-1.1.2c-.3.1-.6.3-.8.5s-.3.4-.4.6l-1.8-.5c.2-.6.5-1.1,1-1.4s.9-.6,1.4-.8,1.1-.2,1.7-.2.8,0,1.3.1.9.3,1.3.5.7.6,1,1,.4,1,.4,1.7v6.5h-1.9v-1.3h-.1c-.1.2-.3.5-.6.7s-.6.4-.9.6c-.4.2-.8.2-1.4.2h0ZM180.7,206.7c.5,0,1-.1,1.4-.3s.7-.5.9-.8.3-.7.3-1.1v-1.3c0,0-.2.1-.4.2s-.4.1-.7.1-.5,0-.7.1-.4,0-.6,0c-.4,0-.7.1-1,.2s-.5.3-.7.5-.3.5-.3.8,0,.6.2.8.4.4.6.5.6.2,1,.2h0Z"/>
          <path class="st2" d="M189.6,194.9v13.1h-1.9v-13.1h1.9Z"/>
          <path class="st2" d="M194.4,208l-2.9-9.8h2l1.1,4.1c.2.6.3,1.3.5,2,.2.8.4,1.6.5,2.5h-.3c.2-.9.4-1.7.5-2.5s.4-1.4.5-2.1l1.1-4.1h1.9l1.1,4.1c.2.6.3,1.3.5,2.1s.4,1.6.5,2.5h-.3c.2-.9.4-1.7.5-2.5s.4-1.4.5-2.1l1.1-4.1h2.1l-3,9.8h-1.9l-1.2-4.2c-.1-.4-.2-.9-.4-1.3-.1-.5-.2-.9-.3-1.4s-.2-1-.3-1.4h.4c-.1.5-.2,1-.3,1.4s-.2,1-.4,1.4-.2.9-.4,1.3l-1.2,4.2h-2Z"/>
          <path class="st2" d="M209.9,208.2c-.6,0-1.2-.1-1.7-.4-.5-.2-.9-.6-1.2-1s-.4-1-.4-1.6.1-1,.3-1.4.5-.6.9-.9.8-.4,1.2-.5.9-.2,1.4-.2c.6,0,1.1-.1,1.4-.2.4,0,.6-.1.8-.2s.3-.3.3-.5h0c0-.4,0-.7-.2-1s-.4-.4-.6-.6c-.3-.1-.6-.2-1-.2s-.8,0-1.1.2c-.3.1-.6.3-.8.5s-.3.4-.4.6l-1.8-.5c.2-.6.5-1.1,1-1.4s.9-.6,1.4-.8,1.1-.2,1.7-.2.8,0,1.3.1.9.3,1.3.5.7.6,1,1,.4,1,.4,1.7v6.5h-1.9v-1.3h-.1c-.1.2-.3.5-.6.7s-.6.4-.9.6c-.4.2-.8.2-1.4.2h0ZM210.3,206.7c.5,0,1-.1,1.4-.3s.7-.5.9-.8.3-.7.3-1.1v-1.3c0,0-.2.1-.4.2s-.4.1-.7.1-.5,0-.7.1-.4,0-.6,0c-.4,0-.7.1-1,.2s-.5.3-.7.5-.3.5-.3.8,0,.6.2.8.4.4.6.5.6.2,1,.2h0Z"/>
          <path class="st2" d="M217.4,208v-9.8h1.9v1.6h.1c.2-.5.5-1,.9-1.3s1-.5,1.5-.5.3,0,.4,0c.2,0,.3,0,.4,0v1.9c0,0-.2,0-.4,0s-.4,0-.6,0c-.4,0-.9,0-1.2.3s-.6.4-.8.8c-.2.3-.3.7-.3,1.1v6h-1.9Z"/>
          <path class="st2" d="M228.2,208.2c-1,0-1.8-.2-2.5-.6s-1.2-1-1.6-1.8-.6-1.6-.6-2.7.2-1.9.6-2.7.9-1.4,1.6-1.8c.7-.4,1.5-.6,2.4-.6s1.1,0,1.6.3c.5.2,1,.5,1.4.9s.8.9,1,1.5c.2.6.4,1.4.4,2.3v.7h-7.8v-1.4h6.8l-.9.5c0-.6,0-1.1-.3-1.6-.2-.5-.5-.8-.8-1.1s-.8-.4-1.4-.4-1,.1-1.4.4-.7.6-.9,1c-.2.4-.3.9-.3,1.4v1c0,.7.1,1.2.4,1.7.2.5.6.8,1,1.1.4.2.9.4,1.4.4s.7,0,1-.1.6-.3.8-.5c.2-.2.4-.5.5-.8l1.8.4c-.2.5-.4.9-.8,1.3s-.8.7-1.4.9c-.6.2-1.2.3-1.9.3h0Z"/>
        </g>
      </g>
      <g class="st10">
        <g>
          <path class="st2" d="M152,196.3v13.1h-2v-13.1h2ZM154.3,209.4h-3.2v-1.8h3.1c1,0,1.8-.2,2.5-.6s1.1-.9,1.5-1.6.5-1.6.5-2.6-.2-1.9-.5-2.6-.8-1.2-1.4-1.6-1.4-.6-2.4-.6h-3.3v-1.8h3.4c1.3,0,2.4.3,3.3.8s1.6,1.3,2.1,2.2c.5,1,.7,2.1.7,3.5s-.2,2.5-.7,3.5-1.2,1.7-2.1,2.3-2.1.8-3.4.8h0Z"/>
          <path class="st2" d="M165.6,209.6c-.6,0-1.2-.1-1.7-.4-.5-.2-.9-.6-1.2-1s-.4-1-.4-1.6.1-1,.3-1.4.5-.6.9-.9.8-.4,1.2-.5.9-.2,1.4-.2c.6,0,1.1-.1,1.4-.2.4,0,.6-.1.8-.2s.3-.3.3-.5h0c0-.4,0-.7-.2-1s-.4-.4-.6-.6c-.3-.1-.6-.2-1-.2s-.8,0-1.1.2c-.3.1-.6.3-.8.5s-.3.4-.4.6l-1.8-.5c.2-.6.5-1.1,1-1.4s.9-.6,1.4-.8,1.1-.2,1.7-.2.8,0,1.3.1.9.3,1.3.5.7.6,1,1,.4,1,.4,1.7v6.5h-1.9v-1.3h-.1c-.1.2-.3.5-.6.7s-.6.4-.9.6c-.4.2-.8.2-1.4.2h0ZM166.1,208.1c.5,0,1-.1,1.4-.3s.7-.5.9-.8.3-.7.3-1.1v-1.3c0,0-.2.1-.4.2s-.4.1-.7.1-.5,0-.7.1-.4,0-.6,0c-.4,0-.7.1-1,.2s-.5.3-.7.5-.3.5-.3.8,0,.6.2.8.4.4.6.5.6.2,1,.2h0Z"/>
          <path class="st2" d="M177.3,199.6v1.6h-5.3v-1.6h5.3ZM173.4,197.3h1.9v9.5c0,.4,0,.7.2.9s.4.3.8.3.2,0,.4,0,.3,0,.4,0l.3,1.6c-.2,0-.4.1-.7.1-.2,0-.5,0-.7,0-.9,0-1.6-.2-2.1-.7s-.7-1.1-.7-1.9v-9.7h0Z"/>
          <path class="st2" d="M183.3,209.6c-1,0-1.8-.2-2.5-.6s-1.2-1-1.6-1.8-.6-1.6-.6-2.7.2-1.9.6-2.7.9-1.4,1.6-1.8c.7-.4,1.5-.6,2.4-.6s1.1,0,1.6.3c.5.2,1,.5,1.4.9s.8.9,1,1.5c.2.6.4,1.4.4,2.3v.7h-7.8v-1.4h6.8l-.9.5c0-.6,0-1.1-.3-1.6-.2-.5-.5-.8-.8-1.1s-.8-.4-1.4-.4-1,.1-1.4.4-.7.6-.9,1c-.2.4-.3.9-.3,1.4v1c0,.7.1,1.2.4,1.7.2.5.6.8,1,1.1.4.2.9.4,1.4.4s.7,0,1-.1.6-.3.8-.5c.2-.2.4-.5.5-.8l1.8.4c-.2.5-.4.9-.8,1.3s-.8.7-1.4.9c-.6.2-1.2.3-1.9.3h0Z"/>
          <path class="st2" d="M191.6,203.6v5.8h-1.9v-9.8h1.9v2.4s-.2,0-.2,0c.3-.9.7-1.5,1.2-1.9s1.2-.6,2-.6,1.2.1,1.8.4.9.7,1.2,1.2.4,1.2.4,2v6.2h-1.9v-6c0-.7-.2-1.3-.6-1.7s-.9-.6-1.5-.6-.8.1-1.2.3c-.4.2-.6.5-.8.8s-.3.8-.3,1.3h0Z"/>
          <path class="st2" d="M202.4,196.3v13.1h-1.9v-13.1h1.9Z"/>
          <path class="st2" d="M209.2,209.6c-1,0-1.8-.2-2.5-.6s-1.2-1-1.6-1.8-.6-1.6-.6-2.7.2-1.9.6-2.7.9-1.4,1.6-1.8c.7-.4,1.5-.6,2.4-.6s1.1,0,1.6.3c.5.2,1,.5,1.4.9s.8.9,1,1.5c.2.6.4,1.4.4,2.3v.7h-7.8v-1.4h6.8l-.9.5c0-.6,0-1.1-.3-1.6-.2-.5-.5-.8-.8-1.1s-.8-.4-1.4-.4-1,.1-1.4.4-.7.6-.9,1c-.2.4-.3.9-.3,1.4v1c0,.7.1,1.2.4,1.7.2.5.6.8,1,1.1.4.2.9.4,1.4.4s.7,0,1-.1.6-.3.8-.5c.2-.2.4-.5.5-.8l1.8.4c-.2.5-.4.9-.8,1.3s-.8.7-1.4.9c-.6.2-1.2.3-1.9.3h0Z"/>
          <path class="st2" d="M219.7,209.6c-.9,0-1.7-.2-2.4-.6s-1.2-1-1.6-1.8-.6-1.6-.6-2.6.2-1.9.6-2.7c.4-.8.9-1.4,1.6-1.8s1.5-.6,2.4-.6,1,0,1.4.2c.4.1.9.3,1.2.6s.7.6.9.9c.2.4.4.8.6,1.2l-1.8.4c0-.2-.2-.5-.3-.7s-.3-.4-.5-.5-.4-.3-.7-.4-.5-.1-.8-.1c-.6,0-1.1.2-1.5.5s-.7.7-.9,1.2-.3,1.1-.3,1.7.1,1.2.3,1.7c.2.5.5.9.9,1.2s.9.5,1.5.5.6,0,.8-.1c.2,0,.5-.2.7-.4s.4-.3.5-.6.2-.5.3-.7l1.8.4c-.1.5-.3.9-.6,1.2-.2.4-.6.7-.9.9s-.8.4-1.2.6-.9.2-1.4.2h0Z"/>
          <path class="st2" d="M225.9,209.4v-13.1h1.9v13.1h-1.9ZM227.7,206.1v-2.4h.3l3.9-4.1h2.3l-4.4,4.8h-.3l-1.8,1.8h0ZM232.1,209.4l-3.5-4.6,1.3-1.4,4.5,6h-2.4,0Z"/>
          <path class="st2" d="M239.5,209.6c-.7,0-1.3-.1-1.9-.3s-1-.5-1.4-.9c-.4-.4-.6-.9-.7-1.5l1.8-.4c.1.5.4.9.8,1.1s.8.4,1.4.4,1.1-.1,1.5-.4c.4-.3.6-.6.6-.9s-.1-.6-.3-.8-.6-.4-1-.5l-1.6-.4c-.9-.2-1.6-.5-2-1s-.7-1-.7-1.7.2-1.1.5-1.5.8-.8,1.3-1,1.2-.4,2-.4,1.3.1,1.8.3.9.5,1.2.9.5.8.7,1.3l-1.7.4c-.1-.4-.3-.6-.6-.9-.3-.3-.8-.4-1.3-.4s-1,.1-1.3.4-.5.5-.5.9.1.6.4.8c.2.2.6.4,1.2.5l1.6.4c.9.2,1.6.5,2,1s.7,1,.7,1.7-.2,1.1-.5,1.6-.8.8-1.4,1.1c-.6.3-1.3.4-2.1.4h0Z"/>
        </g>
      </g>
      <g class="st12">
        <g>
          <path class="st2" d="M143,208.6c-1.1,0-2.1-.3-3-.8-.9-.5-1.6-1.3-2.1-2.3s-.8-2.2-.8-3.6.3-2.6.8-3.6,1.2-1.8,2.1-2.3,1.9-.8,3-.8,2.1.3,3,.8,1.6,1.3,2.1,2.3c.5,1,.8,2.2.8,3.6s-.3,2.6-.8,3.6c-.5,1-1.2,1.8-2.1,2.3-.9.5-1.9.8-3,.8ZM143,206.8c.7,0,1.4-.2,2-.6s1.1-.9,1.4-1.6c.3-.7.5-1.6.5-2.7s-.2-2-.5-2.7-.8-1.3-1.4-1.6-1.3-.6-2-.6-1.4.2-2,.6-1.1.9-1.4,1.7c-.3.7-.5,1.6-.5,2.7s.2,1.9.5,2.7c.3.7.8,1.3,1.4,1.6s1.3.6,2,.6h0Z"/>
          <path class="st2" d="M153.1,202.6v5.8h-1.9v-9.8h1.9v2.4s-.2,0-.2,0c.3-.9.7-1.5,1.2-1.9s1.2-.6,2-.6,1.2.1,1.8.4.9.7,1.2,1.2.4,1.2.4,2v6.2h-1.9v-6c0-.7-.2-1.3-.6-1.7s-.9-.6-1.5-.6-.8.1-1.2.3c-.4.2-.6.5-.8.8s-.3.8-.3,1.3h0Z"/>
          <path class="st2" d="M163.9,195.3v13.1h-1.9v-13.1h1.9Z"/>
          <path class="st2" d="M167.5,197.1c-.3,0-.6-.1-.9-.3-.2-.2-.4-.5-.4-.8s.1-.6.4-.8c.2-.2.5-.3.9-.3s.6.1.9.3.4.5.4.8-.1.6-.4.8-.5.3-.9.3ZM166.5,208.4v-9.8h1.9v9.8h-1.9Z"/>
          <path class="st2" d="M173,202.6v5.8h-1.9v-9.8h1.9v2.4s-.2,0-.2,0c.3-.9.7-1.5,1.2-1.9s1.2-.6,2-.6,1.2.1,1.8.4.9.7,1.2,1.2.4,1.2.4,2v6.2h-1.9v-6c0-.7-.2-1.3-.6-1.7s-.9-.6-1.5-.6-.8.1-1.2.3c-.4.2-.6.5-.8.8s-.3.8-.3,1.3h0Z"/>
          <path class="st2" d="M186.1,208.6c-1,0-1.8-.2-2.5-.6s-1.2-1-1.6-1.8c-.4-.8-.6-1.6-.6-2.7s.2-1.9.6-2.7c.4-.8.9-1.4,1.6-1.8.7-.4,1.5-.6,2.4-.6s1.1,0,1.6.3c.5.2,1,.5,1.4.9s.8.9,1,1.5c.2.6.4,1.4.4,2.3v.7h-7.8v-1.4h6.8l-.9.5c0-.6,0-1.1-.3-1.6-.2-.5-.5-.8-.8-1.1s-.8-.4-1.4-.4-1,.1-1.4.4-.7.6-.9,1c-.2.4-.3.9-.3,1.4v1c0,.7.1,1.2.4,1.7.2.5.6.8,1,1.1.4.2.9.4,1.4.4s.7,0,1-.1.6-.3.8-.5c.2-.2.4-.5.5-.8l1.8.4c-.2.5-.4.9-.8,1.3s-.8.7-1.4.9c-.6.2-1.2.3-1.9.3h0Z"/>
          <path class="st2" d="M198.2,202.1v1.7h-5.8v-1.7h5.8Z"/>
          <path class="st2" d="M200.9,208.4v-13.1h4.8c.9,0,1.7.1,2.3.5s1.1.7,1.4,1.2c.3.5.4,1.1.4,1.8s-.1,1-.3,1.4-.5.7-.8.9c-.3.2-.7.4-1.1.5h0c.4.2.9.3,1.3.6.4.3.8.6,1,1.1s.4,1,.4,1.7-.2,1.3-.5,1.8-.8,1-1.4,1.3-1.5.5-2.5.5h-5ZM202.9,201h2.6c.4,0,.8,0,1.2-.2s.6-.4.8-.7.3-.7.3-1.1-.2-1-.6-1.4c-.4-.4-.9-.5-1.7-.5h-2.7v4h0ZM202.9,206.7h2.8c.9,0,1.6-.2,2-.5s.6-.8.6-1.4-.1-.8-.3-1.1c-.2-.3-.5-.6-.9-.8s-.8-.3-1.4-.3h-2.9v4.2h0Z"/>
          <path class="st2" d="M216.8,208.6c-1,0-1.8-.2-2.5-.6s-1.2-1-1.6-1.8c-.4-.8-.6-1.6-.6-2.7s.2-1.9.6-2.7c.4-.8.9-1.4,1.6-1.8.7-.4,1.5-.6,2.4-.6s1.1,0,1.6.3c.5.2,1,.5,1.4.9s.8.9,1,1.5c.2.6.4,1.4.4,2.3v.7h-7.8v-1.4h6.8l-.9.5c0-.6,0-1.1-.3-1.6-.2-.5-.5-.8-.8-1.1s-.8-.4-1.4-.4-1,.1-1.4.4-.7.6-.9,1c-.2.4-.3.9-.3,1.4v1c0,.7.1,1.2.4,1.7.2.5.6.8,1,1.1.4.2.9.4,1.4.4s.7,0,1-.1.6-.3.8-.5c.2-.2.4-.5.5-.8l1.8.4c-.2.5-.4.9-.8,1.3s-.8.7-1.4.9c-.6.2-1.2.3-1.9.3h0Z"/>
          <path class="st2" d="M227.4,198.6v1.6h-5.3v-1.6h5.3ZM223.5,196.2h1.9v9.5c0,.4,0,.7.2.9s.4.3.8.3.2,0,.4,0,.3,0,.4,0l.3,1.6c-.2,0-.4.1-.7.1-.2,0-.5,0-.7,0-.9,0-1.6-.2-2.1-.7s-.7-1.1-.7-1.9v-9.7h0Z"/>
          <path class="st2" d="M229.3,208.4v-9.8h1.9v1.6h.1c.2-.5.5-1,.9-1.3s1-.5,1.5-.5.3,0,.4,0c.2,0,.3,0,.4,0v1.9c0,0-.2,0-.4,0s-.4,0-.6,0c-.4,0-.9,0-1.2.3s-.6.4-.8.8c-.2.3-.3.7-.3,1.1v6h-1.9Z"/>
          <path class="st2" d="M239.6,208.5c-.7,0-1.2-.1-1.8-.4s-.9-.7-1.2-1.2c-.3-.6-.4-1.2-.4-2v-6.2h1.9v6c0,.7.2,1.3.6,1.7.4.4.9.6,1.5.6s.8,0,1.2-.3c.3-.2.6-.5.8-.8s.3-.8.3-1.3v-5.8h1.9v9.8h-1.9v-2.4h.2c-.3.9-.7,1.5-1.3,1.9s-1.2.6-1.9.6h0Z"/>
          <path class="st2" d="M251.2,212.3c-.8,0-1.4-.1-2-.3s-1-.4-1.4-.8c-.4-.3-.6-.7-.8-1.1l1.6-.8c.1.2.3.4.5.6.2.2.5.4.8.5s.8.2,1.3.2c.8,0,1.4-.2,1.8-.5.5-.4.7-.9.7-1.7v-1.9h-.2c-.1.2-.3.4-.5.7s-.5.5-.9.7c-.4.2-.9.3-1.4.3s-1.5-.2-2.1-.5-1.1-.9-1.5-1.6-.5-1.6-.5-2.6.2-1.9.5-2.7c.4-.8.9-1.3,1.5-1.7.6-.4,1.3-.6,2.1-.6s1.1.1,1.5.3.7.4.9.7c.2.3.4.5.5.7h.1v-1.6h1.9v10c0,.9-.2,1.6-.6,2.1-.4.6-.9,1-1.6,1.2-.7.3-1.4.4-2.3.4h0ZM251.2,206.6c.6,0,1-.1,1.4-.4.4-.2.7-.6.9-1.1.2-.5.3-1.1.3-1.7s-.1-1.2-.3-1.7-.5-.9-.9-1.2-.8-.4-1.4-.4-1,.1-1.4.4-.7.7-.9,1.2c-.2.5-.3,1.1-.3,1.7s.1,1.2.3,1.7c.2.5.5.9.9,1.1s.9.4,1.4.4h0Z"/>
        </g>
      </g>
    </g>
    <g id="Phishing" class="st13">
      <circle class="st8" cx="204" cy="89" r="55"/>
      <polyline class="st6" points="234 112 241 112 244 112 244 163 143 163 143 150"/>
      <g>
        <rect class="st11" x="206" y="80" width="2" height="2"/>
        <rect class="st11" x="206" y="84" width="2" height="15"/>
        <path class="st11" d="M206,78h2v-7.3c3.7-.5,6.4-4,5.8-7.9-.4-2.8-2.6-5.1-5.4-5.6-4.4-.9-8.2,2.5-8.2,6.7s2.6,6.3,5.9,6.8v7.3h0ZM202.6,63.8c0-2.7,2.2-4.9,4.9-4.9s4.9,2.2,4.9,4.9-2.2,4.9-4.9,4.9-4.9-2.2-4.9-4.9Z"/>
      </g>
      <rect class="st6" x="133" y="99" width="101" height="51"/>
      <path class="st5" d="M194.3,113.8c-6.2,0-11.3-5.1-11.3-11.3v-20.7l5.9,5.5"/>
      <line class="st7" x1="168" y1="111" x2="144" y2="111"/>
      <line class="st6" x1="160" y1="117" x2="144" y2="117"/>
      <line class="st6" x1="234.2" y1="150.8" x2="243.8" y2="111.3"/>
    </g>
    <g id="Social_Engineering" class="st13">
      <circle class="st8" cx="211" cy="87" r="46"/>
      <g>
        <rect class="st1" x="211" y="91" width="2" height="3"/>
        <rect class="st1" x="211" y="76" width="2" height="13"/>
      </g>
      <g>
        <rect class="st14" x="169" y="69" width="2" height="9"/>
        <rect class="st14" x="169" y="80" width="2" height="2"/>
      </g>
      <g>
        <rect class="st14" x="226" y="119" width="2" height="9"/>
        <rect class="st14" x="226" y="131" width="2" height="2"/>
      </g>
      <path class="st6" d="M172.8,161.8h0c-13.6-8-24.8-19.1-32.9-32.6h0c-3.9-6.5-2.1-15.7,4.2-22.1l5-5c1.7-1.7,4.2-1.9,5.6-.5l7,6.9c1.4,1.4,1.2,3.9-.5,5.6l-7.7,9.6,24.8,23.9,9.4-7.3c1.7-1.7,4.2-1.9,5.6-.5l6.9,6.9c1.4,1.4,1.2,3.9-.5,5.6l-5,5c-6.3,6.4-15.5,8.2-22,4.4h0Z"/>
      <path class="st3" d="M194.7,70.8c8.1-9.7,22.4-11,32.1-2.9s11,22.4,2.9,32.1c-6.9,8.2-18.3,10.4-27.5,5.9l-15.5,7.1,7.7-13.4c-6.6-8.3-6.8-20.3.3-28.8h0Z"/>
      <path class="st7" d="M156.3,75.8c0-7.7,6.2-13.9,13.9-13.9s13.9,6.2,13.9,13.9-4.5,12.1-10.6,13.5l-4.5,9.4-1.6-9.3c-6.4-1.3-11.1-6.9-11.1-13.7h0Z"/>
      <path class="st7" d="M221.6,113.2c7.2-2.7,15.2,1,17.9,8.2,2.7,7.2-1,15.2-8.2,17.9-6.1,2.3-12.9,0-16.4-5.3l-10.4-1,8.2-4.7c-1-6.4,2.6-12.8,9-15.2h0Z"/>
    </g>
    <g id="Passwort" class="st13">
      <circle class="st8" cx="225" cy="114" r="55"/>
      <polyline class="st6" points="213 119 125 119 125 79 220 79 220 108"/>
      <line class="st6" x1="149" y1="93" x2="149" y2="106"/>
      <line class="st6" x1="142.9" y1="95.9" x2="154.2" y2="102.4"/>
      <line class="st6" x1="154.2" y1="95.9" x2="142.9" y2="102.4"/>
      <g>
        <line class="st7" x1="172" y1="93" x2="172" y2="106"/>
        <line class="st7" x1="166.6" y1="95.9" x2="177.9" y2="102.4"/>
        <line class="st7" x1="177.9" y1="95.9" x2="166.6" y2="102.4"/>
      </g>
      <g>
        <line class="st7" x1="197" y1="93" x2="197" y2="106"/>
        <line class="st7" x1="191.4" y1="95.9" x2="202.6" y2="102.4"/>
        <line class="st7" x1="202.6" y1="95.9" x2="191.4" y2="102.4"/>
      </g>
      <polygon class="st3" points="228.9 93.4 203.6 135 228.9 135 254.2 135 228.9 93.4"/>
      <g>
        <rect class="st1" x="228" y="109" width="2" height="14"/>
        <rect class="st1" x="228" y="125" width="2" height="2"/>
      </g>
    </g>
    <g id="Malware" class="st13">
      <circle class="st8" cx="165" cy="122" r="48"/>
      <path class="st4" d="M201.8,55.1"/>
      <path class="st4" d="M192.8,55.1"/>
      <path class="st7" d="M247,76v-5.2c0-2.1-1.7-3.8-3.8-3.8h-50.2"/>
      <polyline class="st6" points="177 139 254 139 254 76 199.6 76 190.8 63 148 63 148 110"/>
      <path class="st3" d="M176.1,119c2.2-2.3,2.2-5.9,0-8.2s-5.9-2.2-8.2,0"/>
      <circle class="st3" cx="157" cy="130" r="22"/>
      <polyline class="st3" points="161 109 161 102 168.5 98.4"/>
      <polyline class="st3" points="178 126 185.5 126 189 118.4"/>
      <polyline class="st3" points="155 108 151 101 147 101"/>
      <polyline class="st3" points="179 132 186 135.8 186 140"/>
      <polyline class="st3" points="148 110.1 141.7 107.5 133.1 113.4"/>
      <polyline class="st3" points="177.1 138.2 179.8 145.3 173.9 153.9"/>
    </g>
    <g id="Datenlecks" class="st13">
      <g>
        <circle class="st8" cx="196.5" cy="116" r="55"/>
        <ellipse class="st7" cx="197" cy="60.5" rx="30.5" ry="5.5"/>
        <path class="st7" d="M227.3,89.7c0,3.1-13.6,5.6-30.3,5.6s-30.3-2.5-30.3-5.6"/>
        <path class="st7" d="M185.9,125.2c-11.2-.8-19.2-2.8-19.2-5.2"/>
        <path class="st7" d="M227.3,119.9c0,2.3-7.6,4.3-18.5,5.2"/>
        <line class="st7" x1="166.5" y1="61" x2="166.5" y2="121"/>
        <line class="st7" x1="227.5" y1="61" x2="227.5" y2="121"/>
        <g>
          <line class="st6" x1="190.3" y1="104.5" x2="203.7" y2="118"/>
          <line class="st6" x1="190.3" y1="118" x2="203.7" y2="104.5"/>
        </g>
        <path class="st3" d="M207.1,140.1c0-5.6-10.1-18-10.1-18,0,0-10.1,12.4-10.1,18s4.5,10.1,10.1,10.1,10.1-4.5,10.1-10.1Z"/>
      </g>
    </g>
    <g id="Fraud" class="st13">
      <circle class="st8" cx="240.5" cy="126.5" r="49.5"/>
      <line class="st7" x1="135" y1="72" x2="242" y2="72"/>
      <line class="st7" x1="135" y1="85" x2="242" y2="85"/>
      <rect class="st7" x="145.6" y="111" width="36.4" height="11"/>
      <path class="st6" d="M225,135h-85.4c-2.6,0-4.6-2.1-4.6-4.6v-64.8c0-2.5,2.1-4.6,4.6-4.6h96.8c2.6,0,4.6,2.1,4.6,4.6v55.4"/>
      <rect class="st3" x="225" y="121" width="33" height="23"/>
      <path class="st3" d="M252.2,110.4c0-6.3-5.9-11.3-12.5-9.8-4.6,1-7.8,5.3-7.8,10.1v9.4"/>
    </g>
    <g id="Siren" class="st13">
      <g>
        <path class="st3" d="M196,114.8h1c5.4,0,9.8,4.4,9.8,9.8v20h-20.5v-20c0-5.4,4.4-9.8,9.8-9.8h0Z"/>
        <circle class="st8" cx="196.5" cy="108.9" r="52.8"/>
        <line class="st7" x1="159.4" y1="144.6" x2="233.6" y2="144.6"/>
        <path class="st6" d="M194.7,77h3.6c19.6,0,35.6,15.9,35.6,35.6v58.4h-74.8v-58.4c0-19.6,15.9-35.6,35.6-35.6Z"/>
        <polyline class="st3" points="177.7 121.9 169.8 114 183.6 109.6 183.6 94.3 196.5 105.1 208.4 94.3 208.4 109.6 222.2 114 214.6 121.6"/>
      </g>
    </g>
    <g id="Eye" class="st13">
      <g>
        <circle class="st8" cx="196.5" cy="133.8" r="52.4"/>
        <g>
          <path class="st6" d="M196.5,74.3c-34.8,0-63.7,35.1-63.7,35.1"/>
          <path class="st6" d="M260.2,109.4s-28.9-35.1-63.7-35.1"/>
          <path class="st6" d="M259.7,108.8l.5.6s-28.9,35.1-63.7,35.1"/>
          <path class="st6" d="M133.4,108.7l-.6.8s28.9,35.1,63.7,35.1"/>
        </g>
        <circle class="st7" cx="196.5" cy="109.4" r="24.4"/>
        <circle class="st6" cx="196.5" cy="110.4" r="13.7"/>
        <line class="st3" x1="214.9" y1="152.6" x2="220.1" y2="165.2"/>
        <line class="st3" x1="176.4" y1="152.6" x2="171.2" y2="165.2"/>
        <line class="st3" x1="195.8" y1="154" x2="195.8" y2="167.5"/>
      </g>
    </g>
  </g>
  <g id="Layer_2">
    <g>
      <path class="st7" d="M176.5,123c-1-.9-1.6-2.2-1.6-3.7,0-2.8,2.3-5.1,5.1-5.1s5.1,2.3,5.1,5.1-.6,2.7-1.6,3.7v7.4h-6.9v-7.4Z"/>
      <path class="st6" d="M161.2,100.2v-12.9c0-9,5.8-17.3,14.4-19.2,12.2-2.8,23.1,6.7,23.1,18.8v13.3"/>
      <path class="st6" d="M154.4,100.7v-13.4c0-12,7.9-23,19.6-25.7,16.7-3.8,31.5,8.9,31.5,25.1v13.5"/>
      <polygon class="st6" points="211.7 142.4 189.9 142.4 148.1 142.4 148.1 99.8 211.7 99.8 211.7 116 211.7 142.4"/>
      <g>
        <path class="st3" d="M213,160.6c-4.6-.7-8.9-3.1-12-7-6.4-8.2-5-20,3.2-26.4,8.2-6.4,20-5,26.5,3.2s5,20-3.2,26.4c-1.5,1.1-3,2-4.6,2.7"/>
        <polyline class="st3" points="224.9 153.1 222.5 159.3 228.4 161.6"/>
      </g>
      <circle class="st9" cx="201.7" cy="134.8" r="47.3"/>
    </g>
  </g>
</svg>