<?xml version="1.0" encoding="UTF-8"?>
<svg id="Social_Engineering" data-name="Social Engineering" xmlns="http://www.w3.org/2000/svg" viewBox="0 0 392.36 235.22">
  <defs>
    <style>
      .cls-1 {
        fill: #d0342c;
        opacity: .03;
      }

      .cls-2 {
        fill: #f73e3e;
      }

      .cls-3 {
        stroke: #f73e3e;
      }

      .cls-3, .cls-4, .cls-5 {
        fill: none;
        stroke-miterlimit: 10;
        stroke-width: 2px;
      }

      .cls-4 {
        stroke: #600606;
      }

      .cls-5 {
        stroke: #c9a9a9;
      }

      .cls-6 {
        fill: #c9a9a9;
      }
    </style>
  </defs>
  <circle class="cls-1" cx="210.55" cy="86.85" r="46"/>
  <g>
    <rect class="cls-2" x="210.55" y="90.85" width="2" height="3"/>
    <rect class="cls-2" x="210.55" y="75.85" width="2" height="13"/>
  </g>
  <g>
    <rect class="cls-6" x="168.55" y="68.85" width="2" height="9"/>
    <rect class="cls-6" x="168.55" y="79.85" width="2" height="2"/>
  </g>
  <g>
    <rect class="cls-6" x="225.55" y="118.85" width="2" height="9"/>
    <rect class="cls-6" x="225.55" y="130.85" width="2" height="2"/>
  </g>
  <path class="cls-4" d="M172.38,161.61h0c-13.6-7.98-24.8-19.1-32.87-32.64h0c-3.87-6.49-2.1-15.68,4.24-22.07l4.99-5.03c1.69-1.71,4.22-1.95,5.64-.54l6.96,6.91c1.42,1.41,1.2,3.93-.5,5.64l-7.68,9.64,24.84,23.95,9.39-7.3c1.7-1.68,4.19-1.9,5.6-.5l6.92,6.87c1.42,1.41,1.2,3.93-.5,5.64l-4.99,5.03c-6.34,6.38-15.52,8.21-22.04,4.39Z"/>
  <path class="cls-3" d="M194.26,70.6c8.05-9.68,22.43-11,32.11-2.95,9.68,8.05,11,22.43,2.95,32.11-6.86,8.25-18.3,10.43-27.53,5.92l-15.52,7.09,7.7-13.36c-6.63-8.28-6.76-20.35.29-28.82Z"/>
  <path class="cls-5" d="M155.84,75.71c0-7.7,6.24-13.93,13.93-13.93,7.7,0,13.93,6.24,13.93,13.93,0,6.55-4.52,12.05-10.62,13.54l-4.52,9.4-1.6-9.28c-6.35-1.3-11.13-6.92-11.13-13.65Z"/>
  <path class="cls-5" d="M221.2,113.09c7.22-2.66,15.23,1.03,17.9,8.25,2.66,7.22-1.03,15.23-8.25,17.9-6.15,2.27-12.87-.08-16.38-5.28l-10.38-.99,8.16-4.72c-.98-6.41,2.64-12.83,8.96-15.16Z"/>
</svg>