<?xml version="1.0" encoding="UTF-8"?>
<svg id="Layer_1" data-name="Layer 1" xmlns="http://www.w3.org/2000/svg" viewBox="0 0 102.04 171.89">
  <path d="M0,132.02v-38.38l31.92,31.79-21.84-.36c-1.86,22.85,18.45,40.98,41.04,35.86,14.73-3.34,25.4-16.58,25.93-31.65v-43.31s9.71,0,9.71,0l.37.83c-1.78,27.73,7.83,59.28-19.14,77.56-25.13,17.04-59.32,3.68-66.73-25.33l-1.27-7.01Z"/>
  <path d="M84.48.1c5.1.55,10.64,3.98,13.64,8.08,8.43,11.51,2.58,27.6-11,31.26v15.59h-10.08v-15.59c-15.89-4.11-20.45-24.26-7.68-34.9,2.4-2,6.98-4.1,10.08-4.43,1.22-.13,3.82-.13,5.04,0ZM80.34,10.23c-12.11,1.66-10.38,20.97,2.55,19.82s11.39-21.72-2.55-19.82Z"/>
  <polygon points="87.12 65.1 87.12 75.77 86.76 76.13 77.04 76.13 77.04 65.1 87.12 65.1"/>
</svg>